<svg width="22" height="22" viewBox="0 0 22 22" fill="none" xmlns="http://www.w3.org/2000/svg">
<path d="M12.5 12.5C12.5 12.7967 12.412 13.0867 12.2472 13.3334C12.0824 13.58 11.8481 13.7723 11.574 13.8858C11.2999 13.9994 10.9983 14.0291 10.7074 13.9712C10.4164 13.9133 10.1491 13.7704 9.93934 13.5607C9.72957 13.3509 9.5867 13.0836 9.52883 12.7926C9.47095 12.5017 9.50065 12.2001 9.61419 11.926C9.72772 11.6519 9.91998 11.4176 10.1666 11.2528C10.4133 11.088 10.7033 11 11 11C11.3978 11 11.7794 11.158 12.0607 11.4393C12.342 11.7206 12.5 12.1022 12.5 12.5ZM21.125 11C21.125 13.0025 20.5312 14.9601 19.4186 16.6251C18.3061 18.2902 16.7248 19.5879 14.8747 20.3543C13.0246 21.1206 10.9888 21.3211 9.02471 20.9305C7.06066 20.5398 5.25656 19.5755 3.84055 18.1595C2.42454 16.7435 1.46023 14.9393 1.06955 12.9753C0.678878 11.0112 0.879387 8.97543 1.64572 7.12533C2.41206 5.27523 3.70981 3.69392 5.37486 2.58137C7.0399 1.46882 8.99747 0.875 11 0.875C13.6844 0.877978 16.258 1.94567 18.1562 3.84383C20.0543 5.74199 21.122 8.3156 21.125 11ZM14.5203 13.625H18.4231C18.4972 13.4178 18.5628 13.2059 18.6191 12.9913C16.5856 10.9947 13.8497 9.87611 11 9.87611C8.15026 9.87611 5.41438 10.9947 3.38094 12.9913C3.43719 13.2063 3.5025 13.4175 3.57688 13.625H7.47969C7.86146 13.626 8.23389 13.7431 8.54752 13.9608C8.86115 14.1785 9.10114 14.4864 9.23563 14.8438L10.7413 18.8684C10.8275 18.8684 10.9128 18.875 11 18.875C11.0872 18.875 11.1706 18.875 11.255 18.8684L12.7644 14.8372C12.9001 14.4813 13.1406 14.1749 13.4541 13.9585C13.7676 13.742 14.1394 13.6258 14.5203 13.625ZM3.16344 10.2247C5.42748 8.53675 8.176 7.62493 11 7.62493C13.824 7.62493 16.5725 8.53675 18.8366 10.2247C18.6437 8.28019 17.7349 6.47682 16.2866 5.16505C14.8383 3.85328 12.954 3.12681 11 3.12681C9.04596 3.12681 7.16171 3.85328 5.71343 5.16505C4.26514 6.47682 3.35627 8.28019 3.16344 10.2247ZM8.13969 18.335L7.22 15.875H4.82188C5.69071 16.9741 6.8356 17.823 8.13969 18.335ZM17.1781 15.875H14.78L13.8575 18.3359C15.163 17.8245 16.309 16.9752 17.1781 15.875Z" fill="#A4A4A4"/>
</svg>
