<?xml version="1.0" encoding="UTF-8"?>
<!DOCTYPE svg PUBLIC "-//W3C//DTD SVG 1.1//EN" "http://www.w3.org/Graphics/SVG/1.1/DTD/svg11.dtd">
<!-- Creator: CorelDRAW -->
<svg xmlns="http://www.w3.org/2000/svg" xml:space="preserve" width="0.93448in" height="0.201657in" version="1.1" style="shape-rendering:geometricPrecision; text-rendering:geometricPrecision; image-rendering:optimizeQuality; fill-rule:evenodd; clip-rule:evenodd"
viewBox="0 0 909.22 196.21"
 xmlns:xlink="http://www.w3.org/1999/xlink"
 xmlns:xodm="http://www.corel.com/coreldraw/odm/2003">
 <defs>
  <style type="text/css">
   <![CDATA[
    .fil4 {fill:#FEFEFE}
    .fil0 {fill:url(#id0)}
    .fil3 {fill:url(#id1)}
    .fil1 {fill:url(#id2)}
    .fil2 {fill:url(#id3)}
   ]]>
  </style>
  <linearGradient id="id0" gradientUnits="userSpaceOnUse" x1="156.1" y1="3.54" x2="121.95" y2="63.63">
   <stop offset="0" style="stop-opacity:1; stop-color:#DDA840"/>
   <stop offset="0.690196" style="stop-opacity:1; stop-color:#A28753"/>
   <stop offset="1" style="stop-opacity:1; stop-color:#666666"/>
  </linearGradient>
  <linearGradient id="id1" gradientUnits="userSpaceOnUse" xlink:href="#id0" x1="194.87" y1="104.99" x2="125.51" y2="181">
  </linearGradient>
  <linearGradient id="id2" gradientUnits="userSpaceOnUse" xlink:href="#id0" x1="165.01" y1="18.87" x2="115.35" y2="107.21">
  </linearGradient>
  <linearGradient id="id3" gradientUnits="userSpaceOnUse" xlink:href="#id0" x1="163.89" y1="28.39" x2="53.36" y2="156.89">
  </linearGradient>
 </defs>
 <g id="Layer_x0020_1">
  <metadata id="CorelCorpID_0Corel-Layer"/>
  <g id="_2967671150480">
   <path class="fil0" d="M109.44 63.3c29.46,0 58.93,-12.63 88.39,-33.67 -29.46,-29.46 -63.14,-37.88 -101.02,-21.05 -37.88,21.05 -29.46,58.93 12.63,54.72l-0 -0z"/>
   <path class="fil1" d="M214.67 25.42c-50.51,75.77 -168.37,88.39 -164.16,12.63 -71.56,96.81 54.72,117.86 126.28,46.3 16.84,-16.84 37.88,-42.09 37.88,-58.93l0 -0z"/>
   <path class="fil2" d="M210.46 8.58c16.84,0 21.05,8.42 12.63,29.46 -29.46,79.98 -155.74,159.95 -223.09,84.18 0,46.3 37.88,67.35 101.02,54.72 151.53,-50.51 164.16,-197.84 109.44,-168.37z"/>
   <path class="fil3" d="M227.3 101.19c-29.46,50.51 -67.35,79.98 -126.28,92.61 67.35,12.63 130.49,-25.26 126.28,-92.61z"/>
  </g>
  <g id="_2967671150608">
   <path class="fil4" d="M757.68 75.93c4.21,-25.26 21.05,-42.09 42.09,-42.09 21.05,0 42.09,0 63.14,0 25.26,4.21 42.09,21.05 46.3,42.09 0,16.84 0,29.46 0,42.09 -4.21,25.26 -25.26,46.3 -50.51,46.3 -21.05,0 -33.67,0 -54.72,0 -25.26,0 -46.3,-21.05 -46.3,-46.3 0,-16.84 0,-25.25 0,-42.09l0 0zm25.26 8.42c4.21,-16.84 16.84,-25.26 29.46,-29.46 12.63,0 25.26,0 37.88,0 21.05,4.21 29.46,16.84 29.46,29.46 0,8.42 0,16.84 0,29.46 0,12.63 -12.63,25.26 -29.46,25.26 -12.63,0 -21.05,0 -33.67,0 -21.05,0 -33.67,-12.63 -33.67,-29.46 0,-8.42 0,-16.84 0,-25.25z"/>
   <path class="fil4" d="M707.17 33.84c-29.46,0 -54.72,0 -84.19,0 -4.21,0 -8.42,4.21 -8.42,8.42 0,37.88 0,75.77 0,109.44 0,8.42 4.21,12.63 8.42,12.63 4.21,0 8.42,0 8.42,0 8.42,0 12.63,-4.21 12.63,-8.42 0,-8.42 0,-16.84 0,-25.26 0,-4.21 4.21,-8.42 12.63,-8.42 4.21,0 8.42,0 12.63,0 8.42,0 12.63,0 21.05,8.42 8.42,8.42 12.63,16.84 21.05,25.26 4.21,4.21 8.42,4.21 12.63,8.42 8.42,0 21.05,0 33.67,0 -12.63,-16.84 -25.26,-29.46 -37.88,-46.3 16.84,-4.21 21.05,-16.84 21.05,-37.88 0,-4.21 0,-8.42 0,-16.84 0,-16.84 -12.63,-29.46 -33.67,-29.46zm-58.93 29.47l54.72 0c4.21,0 8.42,4.21 8.42,8.42l0 12.63c0,4.21 -4.21,8.42 -8.42,8.42l-54.72 0c0,0 -4.21,-4.21 -4.21,-8.42l0 -12.63c0,-4.21 4.21,-8.42 4.21,-8.42z"/>
   <path class="fil4" d="M467.24 33.84l113.65 0c4.21,0 8.42,4.21 8.42,8.42l0 12.63c0,0 -4.21,8.42 -8.42,8.42l-84.19 0c-4.21,0 -4.21,4.21 -4.21,4.21l0 12.63c0,0 0,4.21 4.21,4.21l75.77 0c8.42,0 8.42,4.21 8.42,4.21l0 16.84c0,0 0,8.42 -8.42,8.42l-75.77 0c-4.21,0 -4.21,0 -4.21,4.21l0 8.42c0,4.21 0,8.42 4.21,8.42l84.19 0c8.42,0 8.42,4.21 8.42,4.21l0 16.84c0,4.21 -4.21,8.42 -8.42,8.42l-113.65 0c-4.21,0 -4.21,-4.21 -4.21,-8.42l0 -113.65c0,-4.21 0,-8.42 4.21,-8.42l0 -0.01z"/>
   <path class="fil4" d="M298.86 33.84l12.54 0c4.65,0 8.42,3.77 8.42,8.42l-0 111.72c0,4.65 -3.77,8.42 -8.42,8.42l-12.55 0c-4.65,-0 -8.42,-3.77 -8.42,-8.42l0 -111.71c0,-4.65 3.77,-8.42 8.42,-8.42z"/>
   <path class="fil4" d="M408.31 33.84l33.67 0 -109.44 122.07c-4.21,4.21 -12.63,8.42 -12.63,8.42l-16.84 0 -4.21 -8.42c-4.21,0 -4.21,0 0,-4.21l96.81 -109.44c4.21,-4.21 8.42,-8.42 12.63,-8.42l0 0z"/>
   <path class="fil4" d="M404.1 164.32l37.88 0 -54.72 -63.14c-4.21,-4.21 0,-8.42 0,-12.63l-25.26 29.46 42.09 46.3z"/>
  </g>
 </g>
</svg>
