<svg width="13" height="13" viewBox="0 0 13 13" fill="none" xmlns="http://www.w3.org/2000/svg">
<path d="M10.5 9.25V9.75H11.25C11.4489 9.75 11.6397 9.82902 11.7803 9.96967C11.921 10.1103 12 10.3011 12 10.5C12 10.6989 11.921 10.8897 11.7803 11.0303C11.6397 11.171 11.4489 11.25 11.25 11.25H10.5V12C10.5 12.1989 10.421 12.3897 10.2803 12.5303C10.1397 12.671 9.94891 12.75 9.75 12.75C9.55109 12.75 9.36032 12.671 9.21967 12.5303C9.07902 12.3897 9 12.1989 9 12V8.5C9 8.30109 9.07902 8.11032 9.21967 7.96967C9.36032 7.82902 9.55109 7.75 9.75 7.75H11.75C11.9489 7.75 12.1397 7.82902 12.2803 7.96967C12.421 8.11032 12.5 8.30109 12.5 8.5C12.5 8.69891 12.421 8.88968 12.2803 9.03033C12.1397 9.17098 11.9489 9.25 11.75 9.25H10.5ZM3.75 9.75C3.75 10.2804 3.53929 10.7891 3.16421 11.1642C2.78914 11.5393 2.28043 11.75 1.75 11.75H1.5V12C1.5 12.1989 1.42098 12.3897 1.28033 12.5303C1.13968 12.671 0.948912 12.75 0.75 12.75C0.551088 12.75 0.360322 12.671 0.21967 12.5303C0.0790175 12.3897 4.19177e-09 12.1989 0 12V8.5C0 8.30109 0.0790175 8.11032 0.21967 7.96967C0.360322 7.82902 0.551088 7.75 0.75 7.75H1.75C2.28043 7.75 2.78914 7.96071 3.16421 8.33579C3.53929 8.71086 3.75 9.21957 3.75 9.75ZM2.25 9.75C2.25 9.61739 2.19732 9.49021 2.10355 9.39645C2.00979 9.30268 1.88261 9.25 1.75 9.25H1.5V10.25H1.75C1.88261 10.25 2.00979 10.1973 2.10355 10.1036C2.19732 10.0098 2.25 9.88261 2.25 9.75ZM8.5 10.25C8.5 10.913 8.23661 11.5489 7.76777 12.0178C7.29893 12.4866 6.66304 12.75 6 12.75H5C4.80109 12.75 4.61032 12.671 4.46967 12.5303C4.32902 12.3897 4.25 12.1989 4.25 12V8.5C4.25 8.30109 4.32902 8.11032 4.46967 7.96967C4.61032 7.82902 4.80109 7.75 5 7.75H6C6.66304 7.75 7.29893 8.01339 7.76777 8.48223C8.23661 8.95107 8.5 9.58696 8.5 10.25ZM7 10.25C7 9.98478 6.89464 9.73043 6.70711 9.54289C6.51957 9.35536 6.26522 9.25 6 9.25H5.75V11.25H6C6.26522 11.25 6.51957 11.1446 6.70711 10.9571C6.89464 10.7696 7 10.5152 7 10.25ZM0.25 5.75V1.5C0.25 1.16848 0.381696 0.850537 0.616117 0.616117C0.850537 0.381696 1.16848 0.25 1.5 0.25H7.5C7.59856 0.250005 7.69616 0.269437 7.78721 0.307186C7.87826 0.344936 7.96097 0.400261 8.03063 0.47L11.5306 3.97C11.6711 4.11062 11.75 4.30124 11.75 4.5V5.75C11.75 5.94891 11.671 6.13968 11.5303 6.28033C11.3897 6.42098 11.1989 6.5 11 6.5C10.8011 6.5 10.6103 6.42098 10.4697 6.28033C10.329 6.13968 10.25 5.94891 10.25 5.75V5.5H7.25C7.05109 5.5 6.86032 5.42098 6.71967 5.28033C6.57902 5.13968 6.5 4.94891 6.5 4.75V1.75H1.75V5.75C1.75 5.94891 1.67098 6.13968 1.53033 6.28033C1.38968 6.42098 1.19891 6.5 1 6.5C0.801088 6.5 0.610322 6.42098 0.46967 6.28033C0.329018 6.13968 0.25 5.94891 0.25 5.75ZM8 2.5625V4H9.4375L8 2.5625Z" fill="#57554D"/>
</svg>
