<svg width="20" height="22" viewBox="0 0 20 22" fill="none" xmlns="http://www.w3.org/2000/svg">
<path d="M6.66063 2.5671C6.62355 2.42397 6.61503 2.27495 6.63558 2.12853C6.65614 1.98212 6.70534 1.84119 6.7804 1.71381C6.85545 1.58642 6.95488 1.47509 7.07299 1.38616C7.19111 1.29723 7.32559 1.23245 7.46876 1.19553C9.12903 0.766853 10.871 0.766853 12.5313 1.19553C12.6775 1.2294 12.8155 1.29219 12.9371 1.38021C13.0587 1.46824 13.1615 1.57972 13.2394 1.70807C13.3172 1.83643 13.3686 1.97907 13.3905 2.1276C13.4124 2.27612 13.4043 2.42753 13.3668 2.57288C13.3292 2.71824 13.263 2.85461 13.1719 2.97397C13.0808 3.09332 12.9668 3.19324 12.8365 3.26783C12.7062 3.34243 12.5623 3.3902 12.4133 3.40832C12.2643 3.42644 12.1131 3.41455 11.9688 3.37335C10.6774 3.03993 9.32258 3.03993 8.03126 3.37335C7.74259 3.44803 7.43609 3.40506 7.17909 3.25388C6.92208 3.1027 6.73561 2.85568 6.66063 2.5671ZM1.0272 9.67522C1.12497 9.70189 1.22585 9.71545 1.3272 9.71554C1.57319 9.71542 1.81237 9.63468 2.00811 9.48568C2.20384 9.33668 2.34535 9.12762 2.41095 8.89053C2.76819 7.60628 3.4456 6.43372 4.3797 5.48272C4.48912 5.37871 4.57648 5.25373 4.63659 5.11524C4.69669 4.97675 4.72831 4.82758 4.72955 4.67661C4.7308 4.52564 4.70164 4.37597 4.64382 4.23651C4.58601 4.09705 4.50071 3.97065 4.39302 3.86485C4.28533 3.75904 4.15744 3.676 4.01698 3.62066C3.87651 3.56531 3.72635 3.53881 3.57543 3.54272C3.42451 3.54664 3.27592 3.58089 3.13851 3.64343C3.00111 3.70598 2.8777 3.79554 2.77563 3.90678C1.57465 5.13039 0.703731 6.63869 0.244383 8.29053C0.164637 8.57796 0.202303 8.88529 0.349099 9.14495C0.495895 9.40462 0.739804 9.59535 1.0272 9.67522ZM11.9688 18.6265C10.6774 18.9599 9.32258 18.9599 8.03126 18.6265C7.8869 18.5853 7.73575 18.5734 7.58672 18.5915C7.43769 18.6096 7.29379 18.6574 7.16351 18.732C7.03323 18.8066 6.91919 18.9065 6.82812 19.0259C6.73706 19.1452 6.6708 19.2816 6.63326 19.4269C6.59571 19.5723 6.58764 19.7237 6.60952 19.8722C6.6314 20.0207 6.68278 20.1634 6.76064 20.2917C6.83851 20.4201 6.94127 20.5316 7.06288 20.6196C7.1845 20.7076 7.3225 20.7704 7.46876 20.8043C9.12903 21.233 10.871 21.233 12.5313 20.8043C12.6775 20.7704 12.8155 20.7076 12.9371 20.6196C13.0587 20.5316 13.1615 20.4201 13.2394 20.2917C13.3172 20.1634 13.3686 20.0207 13.3905 19.8722C13.4124 19.7237 13.4043 19.5723 13.3668 19.4269C13.3292 19.2816 13.263 19.1452 13.1719 19.0259C13.0808 18.9065 12.9668 18.8066 12.8365 18.732C12.7062 18.6574 12.5623 18.6096 12.4133 18.5915C12.2643 18.5734 12.1131 18.5853 11.9688 18.6265ZM17.5891 8.89241C17.6737 9.1743 17.8654 9.41179 18.1231 9.55396C18.3808 9.69614 18.684 9.73166 18.9676 9.65291C19.2511 9.57416 19.4926 9.38742 19.6401 9.13273C19.7876 8.87805 19.8294 8.5757 19.7566 8.29053C19.2979 6.63786 18.4269 5.1288 17.2253 3.90491C17.1238 3.79134 17.0002 3.69958 16.8621 3.6352C16.7241 3.57081 16.5743 3.53515 16.4221 3.53036C16.2698 3.52557 16.1181 3.55176 15.9763 3.60734C15.8344 3.66292 15.7053 3.74673 15.5969 3.85369C15.4884 3.96066 15.4027 4.08854 15.3451 4.22959C15.2876 4.37064 15.2592 4.52191 15.2619 4.67424C15.2645 4.82657 15.298 4.97677 15.3605 5.11575C15.4229 5.25472 15.5129 5.37957 15.625 5.48272C16.5573 6.43488 17.2337 7.60805 17.5891 8.89241ZM19.7594 13.7102C19.2433 15.5677 18.207 17.239 16.7725 18.5271C16.6442 18.6425 16.4911 18.7268 16.325 18.7736C16.1589 18.8203 15.9842 18.8283 15.8146 18.7967C15.6449 18.7652 15.4848 18.695 15.3466 18.5917C15.2084 18.4884 15.0958 18.3546 15.0175 18.2008C14.5473 17.2746 13.8297 16.4967 12.9444 15.9533C12.0591 15.4099 11.0407 15.1222 10.0019 15.1222C8.96312 15.1222 7.94464 15.4099 7.05934 15.9533C6.17404 16.4967 5.4565 17.2746 4.98626 18.2008C4.90806 18.3547 4.79552 18.4885 4.65734 18.5919C4.51916 18.6953 4.35904 18.7655 4.18938 18.7971C4.12163 18.8094 4.05293 18.8156 3.98407 18.8158C3.70705 18.8152 3.43999 18.7124 3.23407 18.5271C1.79736 17.2395 0.759009 15.5678 0.241571 13.7093C0.180094 13.4283 0.228546 13.1345 0.376972 12.8882C0.525397 12.6419 0.762525 12.4617 1.03964 12.3848C1.31675 12.3079 1.6128 12.34 1.86697 12.4746C2.12113 12.6091 2.31411 12.8359 2.40626 13.1083C2.68587 14.1151 3.16399 15.0557 3.81251 15.8749C4.54112 14.9457 5.47059 14.1935 6.53126 13.6746C5.85561 12.9904 5.39739 12.1217 5.21425 11.1777C5.0311 10.2337 5.13121 9.25668 5.50198 8.36946C5.87275 7.48224 6.49762 6.72449 7.29798 6.19153C8.09834 5.65856 9.03843 5.37419 10 5.37419C10.9616 5.37419 11.9017 5.65856 12.702 6.19153C13.5024 6.72449 14.1273 7.48224 14.498 8.36946C14.8688 9.25668 14.9689 10.2337 14.7858 11.1777C14.6026 12.1217 14.1444 12.9904 13.4688 13.6746C14.5292 14.1938 15.4586 14.946 16.1875 15.8749C16.8355 15.0561 17.3136 14.1161 17.5938 13.1102C17.6736 12.8227 17.8643 12.5786 18.1241 12.4317C18.3839 12.2848 18.6914 12.2471 18.9789 12.3269C19.2665 12.4068 19.5105 12.5975 19.6574 12.8573C19.8043 13.1171 19.842 13.4245 19.7622 13.7121L19.7594 13.7102ZM10 12.8749C10.5192 12.8749 11.0267 12.721 11.4584 12.4325C11.8901 12.1441 12.2265 11.7341 12.4252 11.2545C12.6239 10.7748 12.6759 10.247 12.5746 9.7378C12.4733 9.2286 12.2233 8.76087 11.8562 8.39375C11.4891 8.02664 11.0213 7.77663 10.5121 7.67535C10.0029 7.57406 9.47512 7.62605 8.99546 7.82473C8.51581 8.02341 8.10584 8.35986 7.8174 8.79154C7.52896 9.22322 7.37501 9.73073 7.37501 10.2499C7.37501 10.9461 7.65157 11.6138 8.14385 12.1061C8.63614 12.5983 9.30381 12.8749 10 12.8749Z" fill="#A4A4A4"/>
</svg>
