<svg width="24" height="18" viewBox="0 0 24 18" fill="none" xmlns="http://www.w3.org/2000/svg">
<path d="M22.5 6.75H21.4875L18.8831 0.890625C18.7653 0.625525 18.5731 0.400293 18.3298 0.242217C18.0865 0.0841403 17.8026 3.47268e-06 17.5125 0H6.4875C6.19738 3.47268e-06 5.91349 0.0841403 5.67022 0.242217C5.42695 0.400293 5.23474 0.625525 5.11688 0.890625L2.5125 6.75H1.5C1.30109 6.75 1.11032 6.82902 0.96967 6.96967C0.829018 7.11032 0.75 7.30109 0.75 7.5C0.75 7.69891 0.829018 7.88968 0.96967 8.03033C1.11032 8.17098 1.30109 8.25 1.5 8.25H2.25V15.75C2.25 16.1478 2.40804 16.5294 2.68934 16.8107C2.97064 17.092 3.35218 17.25 3.75 17.25H6C6.39782 17.25 6.77936 17.092 7.06066 16.8107C7.34196 16.5294 7.5 16.1478 7.5 15.75V15H16.5V15.75C16.5 16.1478 16.658 16.5294 16.9393 16.8107C17.2206 17.092 17.6022 17.25 18 17.25H20.25C20.6478 17.25 21.0294 17.092 21.3107 16.8107C21.592 16.5294 21.75 16.1478 21.75 15.75V8.25H22.5C22.6989 8.25 22.8897 8.17098 23.0303 8.03033C23.171 7.88968 23.25 7.69891 23.25 7.5C23.25 7.30109 23.171 7.11032 23.0303 6.96967C22.8897 6.82902 22.6989 6.75 22.5 6.75ZM4.15406 6.75L6.4875 1.5H17.5125L19.8459 6.75H4.15406Z" fill="#605D55"/>
</svg>
