<svg width="20" height="20" viewBox="0 0 20 20" fill="none" xmlns="http://www.w3.org/2000/svg">
<path d="M19.07 14.8302L17 12.7102C16.5547 12.2869 15.9931 12.0065 15.3872 11.9049C14.7813 11.8034 14.1589 11.8853 13.6 12.1402L12.7 11.2402C13.7605 9.8231 14.2449 8.05686 14.0555 6.29702C13.8662 4.53718 13.0172 2.91441 11.6794 1.75539C10.3417 0.596361 8.61452 -0.0128575 6.84565 0.05037C5.07678 0.113598 3.39754 0.844576 2.14596 2.09615C0.894381 3.34773 0.163402 5.02698 0.100175 6.79585C0.0369472 8.56472 0.646165 10.2919 1.80519 11.6296C2.96421 12.9674 4.58699 13.8164 6.34683 14.0057C8.10667 14.1951 9.87291 13.7107 11.29 12.6502L12.18 13.5402C11.8951 14.0998 11.793 14.7348 11.8881 15.3555C11.9831 15.9762 12.2706 16.5515 12.71 17.0002L14.83 19.1202C15.3925 19.682 16.155 19.9975 16.95 19.9975C17.745 19.9975 18.5075 19.682 19.07 19.1202C19.3557 18.8408 19.5828 18.5071 19.7378 18.1388C19.8928 17.7704 19.9726 17.3748 19.9726 16.9752C19.9726 16.5756 19.8928 16.1799 19.7378 15.8116C19.5828 15.4432 19.3557 15.1096 19.07 14.8302ZM10.59 10.5902C9.89023 11.2882 8.99929 11.7631 8.02973 11.955C7.06017 12.1469 6.05549 12.0472 5.14259 11.6684C4.2297 11.2896 3.44955 10.6487 2.9007 9.82672C2.35185 9.00475 2.05893 8.03855 2.05893 7.05019C2.05893 6.06182 2.35185 5.09562 2.9007 4.27365C3.44955 3.45168 4.2297 2.81081 5.14259 2.432C6.05549 2.05319 7.06017 1.95343 8.02973 2.14534C8.99929 2.33724 9.89023 2.81219 10.59 3.51019C11.0556 3.97464 11.4251 4.5264 11.6771 5.13385C11.9292 5.7413 12.0589 6.39251 12.0589 7.05019C12.0589 7.70786 11.9292 8.35907 11.6771 8.96652C11.4251 9.57397 11.0556 10.1257 10.59 10.5902ZM17.66 17.6602C17.567 17.7539 17.4564 17.8283 17.3346 17.8791C17.2127 17.9298 17.082 17.956 16.95 17.956C16.818 17.956 16.6873 17.9298 16.5654 17.8791C16.4436 17.8283 16.333 17.7539 16.24 17.6602L14.12 15.5402C14.0263 15.4472 13.9519 15.3366 13.9011 15.2148C13.8503 15.0929 13.8242 14.9622 13.8242 14.8302C13.8242 14.6982 13.8503 14.5675 13.9011 14.4456C13.9519 14.3237 14.0263 14.2132 14.12 14.1202C14.213 14.0265 14.3236 13.9521 14.4454 13.9013C14.5673 13.8505 14.698 13.8244 14.83 13.8244C14.962 13.8244 15.0927 13.8505 15.2146 13.9013C15.3364 13.9521 15.447 14.0265 15.54 14.1202L17.66 16.2402C17.7537 16.3331 17.8281 16.4438 17.8789 16.5656C17.9296 16.6875 17.9558 16.8182 17.9558 16.9502C17.9558 17.0822 17.9296 17.2129 17.8789 17.3348C17.8281 17.4566 17.7537 17.5672 17.66 17.6602Z" fill="#7B7B7B"/>
</svg>
