<?xml version="1.0" encoding="UTF-8"?>
<!DOCTYPE svg PUBLIC "-//W3C//DTD SVG 1.1//EN" "http://www.w3.org/Graphics/SVG/1.1/DTD/svg11.dtd">
<!-- Creator: CorelDRAW -->
<svg xmlns="http://www.w3.org/2000/svg" xml:space="preserve" width="0.931417in" height="0.201594in" version="1.1" style="shape-rendering:geometricPrecision; text-rendering:geometricPrecision; image-rendering:optimizeQuality; fill-rule:evenodd; clip-rule:evenodd"
viewBox="0 0 266.06 57.59"
 xmlns:xlink="http://www.w3.org/1999/xlink"
 xmlns:xodm="http://www.corel.com/coreldraw/odm/2003">
 <defs>
  <style type="text/css">
   <![CDATA[
    .fil4 {fill:#615C56}
    .fil2 {fill:url(#id0)}
    .fil3 {fill:url(#id1)}
    .fil0 {fill:url(#id2)}
    .fil1 {fill:url(#id3)}
   ]]>
  </style>
  <linearGradient id="id0" gradientUnits="userSpaceOnUse" x1="48.37" y1="9.23" x2="16.21" y2="46.48">
   <stop offset="0" style="stop-opacity:1; stop-color:#DDA840"/>
   <stop offset="0.690196" style="stop-opacity:1; stop-color:#A28753"/>
   <stop offset="1" style="stop-opacity:1; stop-color:#666666"/>
  </linearGradient>
  <linearGradient id="id1" gradientUnits="userSpaceOnUse" xlink:href="#id0" x1="57.07" y1="30.92" x2="37.66" y2="52.95">
  </linearGradient>
  <linearGradient id="id2" gradientUnits="userSpaceOnUse" xlink:href="#id0" x1="46.23" y1="1.1" x2="36" y2="19.18">
  </linearGradient>
  <linearGradient id="id3" gradientUnits="userSpaceOnUse" xlink:href="#id0" x1="48.91" y1="5.97" x2="33.8" y2="31.56">
  </linearGradient>
 </defs>
 <g id="Layer_x0020_1">
  <metadata id="CorelCorpID_0Corel-Layer"/>
  <g id="_2967746566864">
   <path class="fil0" d="M31.84 18.75c8.89,-0.33 17.44,-4.17 25.75,-10.7 -7.98,-7.59 -18.42,-10.47 -29.69,-5.78 -10.7,5.89 -8.26,17.18 3.93,16.48z"/>
   <path class="fil1" d="M62.95 6.93c-14.98,22.28 -49.79,26.97 -48.57,3.93 -20.45,28.87 16.02,35.12 37.44,13.87 4.67,-4.62 10.66,-11.95 11.12,-17.81z"/>
   <path class="fil2" d="M61.97 2.57c4.32,0.17 5.5,2.92 3.66,8.16 -9.62,24.03 -45.96,47.55 -65.6,24.77 -0.68,13.45 10.97,20.08 29.28,15.91 44.94,-14.8 48.36,-57.91 32.66,-48.84z"/>
   <path class="fil3" d="M66.05 29.3c-7.78,14.69 -19.73,24.05 -36.32,27.45 18.95,4.21 37.48,-7.94 36.32,-27.45z"/>
  </g>
  <g id="_2967746579856">
   <path class="fil4" d="M222.17 22.23c1,-7.98 6.67,-11.97 12.84,-12.43 6.23,0 11.86,0 18.08,0 7.81,0.81 12.4,5.86 12.97,12.52 0,4.43 0,8.28 0,12.71 -0.87,7.48 -6.65,12.97 -14,12.78 -6.06,0 -10.03,0 -16.07,0 -8.2,0.2 -13.84,-6.45 -13.82,-13.26 0,-4.47 0,-7.85 0,-12.32l0 0zm7.87 2.37c0.63,-5.14 4.29,-7.68 8.24,-7.98 3.99,0 7.59,0 11.6,0 5.01,0.52 7.94,3.75 8.31,8.04 0,2.85 0,5.3 0,8.15 -0.55,4.8 -4.27,8.33 -8.98,8.2 -3.88,0 -6.43,0 -10.33,0 -5.25,0.13 -8.87,-4.14 -8.85,-8.52 0,-2.86 0,-5.02 0,-7.89l-0 0z"/>
   <path class="fil4" d="M207.3 9.9c-8.26,-0.04 -16.53,-0.07 -24.81,-0.13 -1.44,0.04 -2.14,0.74 -2.11,2.14 0,11.03 0,22.04 0,33.05 -0.06,1.7 0.41,2.62 2.14,2.72 1.02,0 2.03,0 3.05,0 2.2,-0.02 3.1,-1.07 3.33,-2.66 0,-2.18 0,-4.38 0,-6.56 0.18,-2.05 1.31,-2.96 3.16,-3.01 1.46,0 2.94,0 4.4,0 2,-0.02 3.79,0.85 5.41,2.55 2.37,2.66 4.73,5.34 7.09,8 0.78,0.94 1.79,1.44 2.86,1.59 3.36,0 6.71,0 10.07,0 -3.66,-4.16 -7.3,-8.31 -10.95,-12.47 4.65,-2.24 6.5,-6.15 6.47,-11.77 0,-1.42 0,-2.85 0,-4.27 -0.57,-5.65 -3.82,-8.83 -10.1,-9.18l0 -0zm-16.79 8.81l15.89 0c1.05,0 1.9,0.85 1.9,1.9l0 4.45c0,1.05 -0.85,1.9 -1.9,1.9l-15.89 0c-1.05,0 -1.9,-0.85 -1.9,-1.9l0 -4.45c0,-1.05 0.85,-1.9 1.9,-1.9z"/>
   <path class="fil4" d="M137.14 9.98l33.44 0c1.07,0 1.96,0.87 1.96,1.96l0 3.99c0,0.63 -0.98,2.66 -2.6,2.66l-24.42 0c-0.91,0 -1.64,0.76 -1.64,1.66l0 2.57c0,0.91 0.74,1.64 1.64,1.64l22.83 0c1.68,0 2.37,0.94 2.37,1.96l0 4.25c0,0.65 -0.7,2.42 -2.46,2.42l-22.74 0c-0.91,0 -1.64,0.74 -1.64,1.64l0 2.57c0,0.91 0.74,1.64 1.64,1.64l24.72 0c2,0 2.31,1.35 2.31,1.96l0 4.9c0,1.07 -0.89,1.96 -1.96,1.96l-33.44 0c-1.07,0 -1.96,-0.89 -1.96,-1.96l0 -33.86c0,-1.09 0.89,-1.96 1.96,-1.96l0 0z"/>
   <path class="fil4" d="M87.24 9.94l4.49 0c1.14,0 2.07,0.99 2.07,2.2l-0 33.32c0,1.21 -0.93,2.2 -2.07,2.2l-4.49 0c-1.14,-0 -2.07,-0.99 -2.07,-2.2l-0 -33.32c0,-1.21 0.93,-2.2 2.07,-2.2z"/>
   <path class="fil4" d="M119.98 9.94l9.53 0 -32.42 35.65c-1.03,1.14 -2.83,2.07 -3.97,2.07l-4.08 0 -1.98 -1.55c-0.89,-0.72 -1.22,-0.94 -0.18,-2.09l29.13 -32c1.05,-1.14 2.83,-2.09 3.97,-2.09l0 -0z"/>
   <path class="fil4" d="M118.02 47.65l11.18 -0.13 -15.96 -17.4c-0.96,-1.53 -0.41,-3.1 -0.28,-4.65l-7.3 9.16 12.36 13.02 -0 0z"/>
  </g>
 </g>
</svg>
