<svg width="660" height="511" viewBox="0 0 660 511" fill="none" xmlns="http://www.w3.org/2000/svg">
<path d="M231.471 343.585V459.213H648.115V343.585H231.471Z" fill="#BB9348"/>
<path d="M269.218 289.115H247.239H222.393V343.585H231.471H648.115H659.105V289.115H634.737H611.324H269.218Z" fill="#B50000"/>
<path d="M634.737 171.576H611.324V289.115H634.737V171.576Z" fill="#605D55"/>
<path d="M247.239 171.576V289.115H269.218V171.576H247.239Z" fill="#605D55"/>
<path d="M287.374 1L260.617 54.9917H324.165H402.525H479.929H557.811H618.014L590.779 1H287.374Z" fill="#605D55"/>
<path d="M243.894 54.9917L247.239 132.396H324.165V54.9917H260.617H243.894Z" fill="#BB9348"/>
<path d="M247.239 132.396V171.576H269.218H324.165V132.396H247.239Z" fill="#BB9348"/>
<path d="M634.737 171.576V132.396H557.333V171.576H611.324H634.737Z" fill="#BB9348"/>
<path d="M634.737 132.396V54.9917H618.014H557.811L557.333 132.396H634.737Z" fill="#BB9348"/>
<path d="M402.525 132.396V171.576H479.929V132.396H402.525Z" fill="#BB9348"/>
<path d="M402.525 54.9917V132.396H479.929V54.9917H402.525Z" fill="#BB9348"/>
<path d="M324.165 54.9917V132.396H402.525V54.9917H324.165Z" fill="#B50000"/>
<path d="M402.525 132.396H324.165V171.576H402.525V132.396Z" fill="#B50000"/>
<path d="M479.929 54.9917V132.396H557.333L557.811 54.9917H479.929Z" fill="#B50000"/>
<path d="M557.333 132.396H479.929V171.576H557.333V132.396Z" fill="#B50000"/>
<path d="M648.115 459.213H231.471H220.004V478.325H659.105V459.213H648.115Z" fill="#605D55"/>
<path d="M260.617 54.9917L287.374 1H590.779L618.014 54.9917M260.617 54.9917H324.165M260.617 54.9917H243.894M618.014 54.9917H634.737V132.396M618.014 54.9917H557.811M243.894 54.9917L247.239 132.396M243.894 54.9917H324.165M247.239 132.396V171.576M247.239 132.396H324.165M247.239 171.576V289.115M247.239 171.576H269.218M634.737 171.576V132.396M634.737 171.576H611.324M634.737 171.576V289.115M634.737 132.396H557.333M324.165 54.9917V132.396M324.165 54.9917H402.525M324.165 132.396H402.525M324.165 132.396V171.576M324.165 171.576H402.525M324.165 171.576H269.218M402.525 54.9917V132.396M402.525 54.9917H479.929M402.525 132.396V171.576M402.525 132.396H479.929M402.525 171.576H479.929M479.929 54.9917V132.396M479.929 54.9917H557.811M479.929 132.396H557.333M479.929 132.396V171.576M479.929 171.576H557.333M557.811 54.9917L557.333 132.396M557.333 132.396V171.576M557.333 171.576H611.324M247.239 289.115H269.218M247.239 289.115H222.393V343.585H231.471M269.218 289.115V171.576M269.218 289.115H611.324M611.324 171.576V289.115M611.324 289.115H634.737M634.737 289.115H659.105V343.585H648.115M231.471 343.585V459.213M231.471 343.585H648.115M231.471 459.213H648.115M231.471 459.213H220.004V478.325H659.105V459.213H648.115M648.115 459.213V343.585" stroke="black" stroke-opacity="0.4" stroke-width="0.955606"/>
<g filter="url(#filter0_f_1285_3714)">
<ellipse cx="119.734" cy="497.656" rx="110.046" ry="4.34393" fill="#624235"/>
</g>
<path d="M124.875 141.555V122.482L118.298 123.14L118.259 124.455C117.363 155.122 115.389 214.32 114.351 215.876C113.036 217.849 112.378 220.479 110.405 220.479L109.09 244.157H111.721L111.356 269.149L110.405 334.262L134.082 333.819L148.552 333.549L180.779 332.946L184.725 273.753L186.698 244.157L191.96 243.104L193.275 242.841V223.768L184.725 217.191L182.752 138.267L185.195 121.167L185.383 119.851H180.779L179.464 121.167C176.833 122.482 175.518 138.925 175.518 141.555C175.518 143.66 141.756 142.432 124.875 141.555Z" fill="#D9D9D9"/>
<path d="M110.405 220.479C112.378 220.479 113.036 217.849 114.351 215.876C115.389 214.32 117.363 155.122 118.259 124.455L109.09 126.428L110.019 192.856L110.405 220.479Z" fill="#004693"/>
<path d="M184.725 217.191L193.275 223.768L195.505 166.548L197.196 123.14L197.222 122.482L185.195 121.167L182.752 138.267L184.725 217.191Z" fill="#004693"/>
<path d="M111.721 244.157H109.09C108.973 246.261 107.287 261.695 106.459 269.149H108.907H111.356L111.721 244.157Z" fill="#004693"/>
<path d="M186.698 244.157L184.725 273.753H187.685H190.645L191.96 243.104L186.698 244.157Z" fill="#004693"/>
<path d="M195.505 166.548C202.654 163.479 219.452 157.866 229.449 159.971C230.091 157.336 230.866 153.839 231.573 150.106C233.005 142.548 234.163 134.022 233.4 129.717C233.253 128.892 233.036 128.222 232.737 127.744C229.449 122.482 203.747 128.401 197.196 123.14L195.505 166.548Z" fill="#004693"/>
<path d="M109.09 126.428C101.636 137.828 86.0703 164.575 83.4395 180.36C84.0698 180.97 84.7631 181.633 85.504 182.333C90.8481 187.382 98.667 194.347 103.17 197.082C104.774 198.056 105.958 198.494 106.459 198.118C108.564 196.539 109.709 193.952 110.019 192.856L109.09 126.428Z" fill="#004693"/>
<path d="M184.725 273.753L180.779 332.946L148.552 333.549C149.209 365.137 149.473 429.76 145.263 435.547C140.002 442.782 148.552 452.648 145.263 455.278C142.297 457.651 138.26 478.754 143.29 478.04C143.837 477.962 144.49 477.627 145.263 476.982C151.114 472.107 162.31 475.89 168.283 478.914C168.756 479.153 169.196 479.388 169.598 479.613C172.229 473.826 182.752 339.962 187.685 273.753H184.725Z" fill="#44423C"/>
<path d="M110.405 334.262L111.356 269.149H108.907C102.806 292.826 97.2512 403.32 86.0703 431.601C74.8894 459.882 84.0972 464.486 80.151 467.775C77.0586 470.352 75.5818 476.16 76.0369 477.286C76.3548 477.177 76.6311 477.075 76.8625 476.982C78.3154 475.045 91.7673 478.903 99.882 481.581C100.583 481.812 101.245 482.035 101.855 482.244V471.063C105.144 465.144 106.459 455.278 106.459 449.359C106.459 443.44 130.136 342.154 134.082 333.819L110.405 334.262Z" fill="#44423C"/>
<path d="M159.075 122.482C155.129 128.401 142.632 123.14 142.632 122.482C142.632 122.351 142.687 121.867 142.775 121.167L124.875 122.482V141.555C141.756 142.432 175.518 143.66 175.518 141.555C175.518 138.925 176.833 122.482 179.464 121.167H159.075V122.482Z" fill="#004693"/>
<path d="M85.504 182.333C83.3116 188.252 82.1241 199.433 79.5847 202.064C63.7999 209.956 31.4812 226.925 28.8504 226.399C25.5619 225.741 22.2734 221.795 18.9849 221.137C15.6964 220.479 11.7502 219.822 11.0925 219.164C10.4348 218.506 8.46169 222.453 15.6964 223.768C22.9311 225.083 12.4079 233.633 4.51549 232.318C3.41932 232.099 1.22699 231.923 1.22699 232.976C1.22699 234.291 5.17319 234.949 10.4348 234.949C15.6964 234.949 17.0118 234.291 8.46169 237.58C-0.088415 240.868 -0.088415 242.841 2.54239 242.841C5.17319 242.841 11.0925 240.21 13.0656 239.553C15.0387 238.895 14.381 240.21 9.11938 244.157C3.85778 248.103 9.11939 247.445 13.7233 244.157C18.3272 240.868 17.6695 243.499 15.0387 245.472C12.4079 247.445 9.11939 250.734 14.381 248.761C19.6426 246.787 25.5619 239.553 30.8235 236.922C36.0851 234.291 88.0434 221.795 90.6742 221.137C93.305 220.479 96.5061 214.462 103.17 197.082C98.667 194.347 90.8481 187.382 85.504 182.333Z" fill="#FFB77B"/>
<path d="M241.945 129.717H233.4C234.163 134.022 233.005 142.548 231.573 150.106C237.442 150.544 250.758 150.237 257.072 145.502C263.386 140.766 260.58 97.051 258.388 75.7854C261.018 74.47 261.018 75.1277 262.334 72.4969C263.649 69.8661 262.992 67.893 270.226 61.316C277.461 54.739 272.199 54.739 270.884 56.0544C269.569 57.3698 264.307 62.6314 267.595 58.0275C270.884 53.4236 269.569 44.8735 267.595 50.1351C265.622 55.3967 259.703 60.0006 262.334 55.3967C264.965 50.7928 264.965 44.8735 262.992 44.2158C261.018 43.5581 261.018 52.7659 258.388 54.739C255.757 56.7121 259.045 49.4774 258.388 44.8735C257.862 41.1904 256.415 45.0928 255.757 47.5043C252.468 63.2891 250.495 60.6583 245.891 56.0544C243.261 51.4505 243.261 54.0813 243.918 60.0006C244.576 65.9199 246.549 68.5507 249.18 72.4969C251.811 76.4431 244.576 129.717 241.945 129.717Z" fill="#FFB77B"/>
<path d="M153.156 114.59C149.525 114.748 146.475 113.962 143.948 112.65C143.618 114.948 143.041 119.048 142.775 121.167C142.687 121.867 142.632 122.351 142.632 122.482C142.632 123.14 155.129 128.401 159.075 122.482V121.167V113.409C157.434 114.063 155.478 114.489 153.156 114.59Z" fill="#FFB77B"/>
<path fill-rule="evenodd" clip-rule="evenodd" d="M140.659 79.0739H134.082C135.405 90.2548 132.06 89.5248 132.109 90.9125C130.531 88.8079 129.259 89.1587 128.821 89.5971C125.664 95.3849 131.013 99.0241 134.082 100.12C135.003 103.65 138.051 109.586 143.948 112.65C146.475 113.962 149.525 114.748 153.156 114.59C155.478 114.489 157.434 114.063 159.075 113.409C165.987 110.654 167.322 103.841 166.967 100.12L170.152 98.8049C177.962 93.0171 173.406 88.9394 170.152 87.624C169.489 88.85 168.847 89.9717 168.283 90.9125C168.721 87.8433 169.335 81.7047 168.283 81.7047C167.23 81.7047 166.09 78.6354 165.652 77.1008H149.867C150.306 77.7585 150.92 79.0739 149.867 79.0739C148.552 79.0739 139.344 76.4431 138.029 77.1008C136.976 77.627 139.344 78.6354 140.659 79.0739ZM157.76 100.12H143.948H142.632C143.948 104.724 147.894 106.697 148.552 106.697C154.34 109.328 157.102 103.409 157.76 100.12ZM141.317 86.3086C142.632 85.2124 145.263 83.5463 145.263 85.6509C145.263 88.2817 142.632 88.2817 141.317 86.3086ZM157.102 85.6509C157.979 84.9932 159.996 84.0724 161.048 85.6509C162.363 87.624 157.76 88.9394 157.102 85.6509Z" fill="#FFB77B"/>
<path d="M134.082 79.0739H140.659C139.344 78.6354 136.976 77.627 138.029 77.1008C139.344 76.4431 148.552 79.0739 149.867 79.0739C150.92 79.0739 150.306 77.7585 149.867 77.1008H165.652C166.09 78.6354 167.23 81.7047 168.283 81.7047C169.335 81.7047 168.721 87.8433 168.283 90.9125C168.847 89.9717 169.489 88.85 170.152 87.624C173.351 81.7075 177.039 73.3607 174.86 71.1815C171.571 67.893 157.102 52.1082 142.632 60.0006C128.163 67.893 131.452 70.5238 132.109 90.9125C132.06 89.5248 135.405 90.2548 134.082 79.0739Z" fill="#353535"/>
<path d="M145.263 476.982C144.49 477.627 143.837 477.962 143.29 478.04C140.44 480.976 135.135 487.506 136.713 490.136H168.283V478.914C162.31 475.89 151.114 472.107 145.263 476.982Z" fill="#93C6FF"/>
<path d="M99.882 481.581C91.7673 478.903 78.3154 475.045 76.8625 476.982C76.4356 477.552 76.1626 477.597 76.0369 477.286C75.3636 477.517 74.5038 477.778 73.49 478.04C70.4482 478.824 66.0194 479.613 61.0777 479.613C54.749 479.613 53.7929 485.763 54.2052 490.136H100.434C100.572 487.765 100.185 483.855 99.882 481.581Z" fill="#93C6FF"/>
<path d="M54.5007 492.11C69.1893 492.329 98.8297 492.636 99.882 492.11C100.207 491.947 100.373 491.195 100.434 490.136H54.2052C54.2728 490.854 54.3772 491.523 54.5007 492.11Z" fill="#004289"/>
<path d="M168.283 490.136H136.713V492.11H168.283V490.136Z" fill="#004289"/>
<path d="M143.948 100.12H157.76C157.102 103.409 154.34 109.328 148.552 106.697C147.894 106.697 143.948 104.724 142.632 100.12H143.948Z" fill="#F5F5F5"/>
<path d="M141.317 86.3086C142.632 85.2124 145.263 83.5463 145.263 85.6509C145.263 88.2817 142.632 88.2817 141.317 86.3086Z" fill="#0B0A0A"/>
<path d="M157.102 85.6509C157.979 84.9932 159.996 84.0724 161.048 85.6509C162.363 87.624 157.76 88.9394 157.102 85.6509Z" fill="#0B0A0A"/>
<path d="M132.109 90.9125C131.452 70.5238 128.163 67.893 142.632 60.0006C157.102 52.1082 171.571 67.893 174.86 71.1815C177.039 73.3607 173.351 81.7075 170.152 87.624M132.109 90.9125C132.06 89.5248 135.405 90.2548 134.082 79.0739H140.659C139.344 78.6354 136.976 77.627 138.029 77.1008C139.344 76.4431 148.552 79.0739 149.867 79.0739C150.92 79.0739 150.306 77.7585 149.867 77.1008H165.652C166.09 78.6354 167.23 81.7047 168.283 81.7047C169.335 81.7047 168.721 87.8433 168.283 90.9125C168.847 89.9717 169.489 88.85 170.152 87.624M132.109 90.9125C130.531 88.8079 129.259 89.1587 128.821 89.5971C125.664 95.3849 131.013 99.0241 134.082 100.12C135.003 103.65 138.051 109.586 143.948 112.65M170.152 87.624C173.406 88.9394 177.962 93.0171 170.152 98.8049L166.967 100.12C167.322 103.841 165.987 110.654 159.075 113.409M143.948 100.12C145 100.12 153.594 100.12 157.76 100.12M143.948 100.12H142.632C143.948 104.724 147.894 106.697 148.552 106.697C154.34 109.328 157.102 103.409 157.76 100.12M143.948 100.12H157.76M149.867 83.0201C149.867 84.3355 147.894 93.5433 148.552 94.201C149.209 94.8587 149.867 95.5164 151.183 94.8587M156.444 81.047C157.54 80.8278 159.996 80.6524 161.048 81.7047M140.002 83.0201C140.659 83.0201 143.29 79.7316 145.263 81.047M143.948 112.65C146.475 113.962 149.525 114.748 153.156 114.59C155.478 114.489 157.434 114.063 159.075 113.409M143.948 112.65C143.618 114.948 143.041 119.048 142.775 121.167M159.075 113.409V121.167M142.775 121.167C142.687 121.867 142.632 122.351 142.632 122.482C142.632 123.14 155.129 128.401 159.075 122.482V121.167M142.775 121.167L124.875 122.482M124.875 122.482V141.555C141.756 142.432 175.517 143.66 175.517 141.555C175.517 138.925 176.833 122.482 179.464 121.167M124.875 122.482L118.298 123.14M179.464 121.167H159.075M179.464 121.167L180.779 119.851H185.383L185.195 121.167M118.298 123.14C118.285 123.572 118.272 124.011 118.259 124.455M118.298 123.14L118.259 124.455M110.405 220.479C112.378 220.479 113.036 217.849 114.351 215.876C115.389 214.32 117.363 155.122 118.259 124.455M110.405 220.479L109.09 244.157M110.405 220.479L110.019 192.856M109.09 244.157H111.721L111.356 269.149M109.09 244.157C108.973 246.261 107.287 261.695 106.459 269.149H108.907M193.275 223.768V242.841L191.96 243.104M193.275 223.768L184.725 217.191L182.752 138.267L185.195 121.167M193.275 223.768L195.505 166.548M118.259 124.455L109.09 126.428M109.09 126.428C101.636 137.828 86.0703 164.575 83.4395 180.36M109.09 126.428L110.019 192.856M185.195 121.167L197.222 122.482L197.196 123.14M184.725 273.753L180.779 332.946L148.552 333.549M184.725 273.753L186.698 244.157L191.96 243.104M184.725 273.753H187.685M191.96 243.104L190.645 273.753H187.685M111.356 269.149L110.405 334.262L134.082 333.819M111.356 269.149H108.907M83.4395 180.36C88.6166 185.37 98.0426 193.967 103.17 197.082M83.4395 180.36C84.0698 180.97 84.7631 181.633 85.504 182.333M110.019 192.856C109.709 193.952 108.564 196.539 106.459 198.118C105.958 198.494 104.774 198.056 103.17 197.082M85.504 182.333C83.3116 188.252 82.1241 199.433 79.5847 202.064C63.7999 209.956 31.4812 226.925 28.8504 226.399C25.5619 225.741 22.2734 221.795 18.9849 221.137C15.6964 220.479 11.7502 219.822 11.0925 219.164C10.4348 218.506 8.46169 222.453 15.6964 223.768C22.9311 225.083 12.4079 233.633 4.51549 232.318C3.41932 232.099 1.22699 231.923 1.22699 232.976C1.22699 234.291 5.17319 234.949 10.4348 234.949C15.6964 234.949 17.0118 234.291 8.46169 237.58C-0.0884151 240.868 -0.0884151 242.841 2.54239 242.841C5.17319 242.841 11.0925 240.21 13.0656 239.553C15.0387 238.895 14.381 240.21 9.11939 244.157C3.85778 248.103 9.11939 247.445 13.7233 244.157C18.3272 240.868 17.6695 243.499 15.0387 245.472C12.4079 247.445 9.11939 250.734 14.381 248.761C19.6426 246.787 25.5619 239.553 30.8235 236.922C36.0851 234.291 88.0434 221.795 90.6742 221.137C93.305 220.479 96.5061 214.462 103.17 197.082M85.504 182.333C90.8481 187.382 98.667 194.347 103.17 197.082M195.505 166.548C202.654 163.479 219.452 157.866 229.449 159.971C230.091 157.336 230.866 153.839 231.573 150.106M195.505 166.548L197.196 123.14M197.196 123.14C203.747 128.401 229.449 122.482 232.737 127.744C233.036 128.222 233.253 128.892 233.4 129.717M233.4 129.717C235.371 129.717 239.841 129.717 241.945 129.717M233.4 129.717C234.163 134.022 233.005 142.548 231.573 150.106M233.4 129.717H241.945M241.945 129.717C244.576 129.717 251.811 76.4431 249.18 72.4969C246.549 68.5507 244.576 65.9199 243.918 60.0006C243.261 54.0813 243.261 51.4505 245.891 56.0544C250.495 60.6583 252.468 63.2891 255.757 47.5043C256.415 45.0928 257.862 41.1904 258.388 44.8735C259.045 49.4774 255.757 56.7121 258.388 54.739C261.018 52.7659 261.019 43.5581 262.992 44.2158C264.965 44.8735 264.965 50.7928 262.334 55.3967C259.703 60.0006 265.622 55.3967 267.595 50.1351C269.569 44.8735 270.884 53.4236 267.595 58.0275C264.307 62.6314 269.569 57.3698 270.884 56.0544C272.199 54.739 277.461 54.739 270.226 61.316C262.992 67.893 263.649 69.8661 262.334 72.4969C261.019 75.1277 261.018 74.47 258.388 75.7854C260.58 97.051 263.386 140.766 257.072 145.502C250.758 150.237 237.442 150.544 231.573 150.106M187.685 273.753C182.752 339.962 172.229 473.825 169.598 479.613C169.196 479.388 168.756 479.153 168.283 478.914M148.552 333.549C149.209 365.137 149.473 429.76 145.263 435.547C140.002 442.782 148.552 452.648 145.263 455.278C142.297 457.651 138.261 478.754 143.29 478.04M148.552 333.549L134.082 333.819M134.082 333.819C130.136 342.154 106.459 443.44 106.459 449.359C106.459 455.278 105.144 465.144 101.855 471.063V482.244C101.245 482.035 100.583 481.812 99.882 481.581M76.8625 476.982C78.3154 475.045 91.7672 478.903 99.882 481.581M76.8625 476.982C76.6311 477.075 76.3548 477.177 76.0369 477.286M76.8625 476.982C76.4356 477.552 76.1626 477.597 76.0369 477.286M108.907 269.149C102.806 292.826 97.2512 403.32 86.0703 431.601C74.8894 459.882 84.0972 464.486 80.151 467.775C77.0586 470.352 75.5818 476.16 76.0369 477.286M99.882 481.581C100.185 483.855 100.572 487.765 100.434 490.136M143.29 478.04C143.837 477.962 144.49 477.627 145.263 476.982C151.114 472.107 162.31 475.89 168.283 478.914M143.29 478.04C140.44 480.976 135.135 487.506 136.713 490.136M136.713 490.136H168.283M136.713 490.136V492.11H168.283V490.136M168.283 490.136V478.914M54.2052 490.136C54.2728 490.854 54.3772 491.523 54.5007 492.11C69.1893 492.329 98.8297 492.636 99.882 492.11C100.207 491.947 100.373 491.195 100.434 490.136M54.2052 490.136C53.7929 485.763 54.749 479.613 61.0777 479.613C66.0194 479.613 70.4482 478.824 73.49 478.04C74.5038 477.778 75.3636 477.517 76.0369 477.286M54.2052 490.136H100.434M145.263 481.581C147.675 480.267 153.419 478.298 157.102 480.929M148.552 478.04C150.525 476.982 155.129 476.466 157.102 478.04M73.49 478.173C73.574 478.956 76.2048 480.008 76.2048 481.586M70.2855 478.956C70.3695 479.738 73.0003 480.79 73.0003 482.369M141.317 86.3086C142.632 85.2124 145.263 83.5463 145.263 85.6509C145.263 88.2817 142.632 88.2817 141.317 86.3086ZM157.102 85.6509C157.979 84.9932 159.996 84.0724 161.048 85.6509C162.363 87.624 157.76 88.9394 157.102 85.6509Z" stroke="black" stroke-opacity="0.4" stroke-width="1.3154"/>
<defs>
<filter id="filter0_f_1285_3714" x="0.999639" y="484.625" width="237.468" height="26.0632" filterUnits="userSpaceOnUse" color-interpolation-filters="sRGB">
<feFlood flood-opacity="0" result="BackgroundImageFix"/>
<feBlend mode="normal" in="SourceGraphic" in2="BackgroundImageFix" result="shape"/>
<feGaussianBlur stdDeviation="4.34393" result="effect1_foregroundBlur_1285_3714"/>
</filter>
</defs>
</svg>
