<?xml version="1.0" encoding="UTF-8"?>
<!DOCTYPE svg PUBLIC "-//W3C//DTD SVG 1.1//EN" "http://www.w3.org/Graphics/SVG/1.1/DTD/svg11.dtd">
<!-- Creator: CorelDRAW (OEM Version) -->
<svg xmlns="http://www.w3.org/2000/svg" xml:space="preserve" width="204.433mm" height="38.6817mm" version="1.1" style="shape-rendering:geometricPrecision; text-rendering:geometricPrecision; image-rendering:optimizeQuality; fill-rule:evenodd; clip-rule:evenodd"
viewBox="0 0 6602.27 1249.25"
 xmlns:xlink="http://www.w3.org/1999/xlink"
 xmlns:xodm="http://www.corel.com/coreldraw/odm/2003">
 <defs>
  <style type="text/css">
   <![CDATA[
    .fil0 {fill:white}
   ]]>
  </style>
 </defs>
 <g id="Layer_x0020_1">
  <metadata id="CorelCorpID_0Corel-Layer"/>
  <g id="_2002326439808">
   <path class="fil0" d="M1374.23 30.73c11.22,2.61 13.63,0.51 21.25,1.9 3.47,0.63 5.47,1.87 8.63,2.55 1.72,0.37 3.15,0.38 4.93,0.66 0.09,0.02 2.35,0.44 2.66,0.53 2.95,0.85 3.06,1.76 6.24,2.54l10.56 3.8c2.44,0.94 0.38,-0.03 2.15,1.04 2.11,1.28 1.13,0.94 3.63,1.96 1.23,0.5 0,-0.13 1.17,0.43 3.89,1.85 7.86,5.22 10.91,8.25 3.47,3.46 7.62,6.36 10.15,10.61l6.54 11.02c0.98,2.05 0.9,2.37 2.05,4.34 2.49,4.25 0.99,4.45 2.66,8.52l2.34 9.64c1.01,12.8 2.34,27.3 0.39,40.44 -1.36,9.19 1.14,7.64 -2.5,17.45 -1.91,5.14 0.12,6.26 -3.56,15.6 -1.09,2.78 -0.64,5.5 -1.37,8.21 -1.02,3.75 -1.86,3.03 -2.61,7.76l-14.92 40.96c-0.71,1.39 0.07,-0.38 -0.91,1.49l-2.75 6.83c-2.42,3.9 -3.91,9.48 -5.95,14.01 -0.98,2.17 -1.08,1.45 -1.88,2.92 -0.08,0.16 -0.19,0.36 -0.27,0.52 -0.08,0.17 -0.16,0.39 -0.23,0.57l-0.75 2.44c-1.63,4.03 -1.31,1.03 -2.75,4.43l-2.09 5.1c-1.44,2.26 -0.84,1.23 -1.84,3.74l-24.85 47.79c-2.77,4.35 -4.31,8.82 -7.11,12.84l-11.87 20.86c-0.09,0.15 -0.2,0.36 -0.3,0.5 -1.24,1.9 -1.57,1.25 -2.54,3.84l-3.45 6.13c-0.48,0.75 -0.19,0.47 -0.89,1.51l-12.42 19.51c-1.31,3.2 -3.7,5.66 -5.73,8.64l-7.86 12.09c-0.45,0.98 -0.23,0.86 -0.69,1.71l-14.08 19.45c-0.1,0.13 -0.26,0.31 -0.36,0.44l-8.74 12.82c-2.1,4.1 -5.72,7.71 -8.64,11.32 -1.74,2.14 -0.59,0.93 -1.84,2.95 -2.53,4.08 -6.2,7.09 -8.79,11.17 -3,4.72 -7.35,8.81 -10.38,13.57l-5.89 7.69c-0.11,0.13 -0.27,0.3 -0.37,0.43l-4.7 5.68c-2.73,2.75 -2.11,3.63 -4.25,6.12l-5.31 5.86c-0.65,0.89 -0.35,0.61 -0.95,1.45 -1.06,1.48 -1.4,1.75 -2.63,2.96l-11.29 13.45c-0.86,1.03 -1.21,1.45 -2.14,2.65l-27.46 31.61c-1.09,1.13 -1.19,1.06 -2.4,2.39 -1.02,1.11 -1.15,1.31 -2.32,2.47 -4.09,4.08 -8.69,8.27 -11.82,12.93 -1.52,2.27 -0.55,0.89 -2.25,2.54l-31.63 32.23c-0.12,0.12 -0.28,0.28 -0.4,0.4l-26.63 26.06c-2.01,2.03 -0.05,0.44 -2.66,2.13 -1.75,1.13 -1.17,0.54 -2.77,2.02 -3.53,3.27 -6.72,6.3 -10.17,9.79l-45.58 40.63c-0.54,0.44 -0.85,0.64 -1.38,1.01l-53.08 41.9c-0.14,0.1 -0.32,0.25 -0.45,0.36l-3.4 2.98c-0.29,0.23 -1.07,0.87 -1.34,1.06l-6.03 4.35c-0.09,0.05 -1.13,0.49 -1.61,0.79l-6.61 5.37c-0.13,0.1 -0.32,0.24 -0.46,0.34l-7.02 4.95c-1.55,1.02 -1.65,1.18 -3.32,2.27l-3.14 2.44c-5.15,4.29 -10.95,7.68 -16.5,11.44 -1.42,0.96 -0.58,0.35 -1.39,1.01l-1.26 1.13c-0.13,0.11 -0.31,0.26 -0.44,0.36l-11.47 7.69c-1.33,0.97 -1.55,1.39 -2.68,2.11l-39.19 24.67c-2.26,1.05 -4.1,2.57 -6.26,4.12l-8.37 5.2c-0.15,0.1 -0.35,0.21 -0.5,0.3l-59.62 33.77c-2.37,0.97 -1.3,0.36 -3.26,1.53 -2.47,1.5 0.32,0.34 -3.12,1.67 -7.93,3.06 -15.46,7.32 -23.03,11.29l-33 15.7c-1.32,0.44 -0.59,0.02 -1.84,0.55 -2.29,0.97 -0.38,0.09 -1.53,0.87 -2.4,1.62 1.35,0.36 -2.88,1.91 -2.1,0.77 -2.4,0.26 -4.5,1.09 -1.98,0.78 -1.37,0.87 -3.04,1.75 -5.91,3.13 -7.3,2.81 -12.02,4.75 -2.92,1.2 -0.84,1.39 -4.62,2.56l-21.3 8.24c-3.95,2.13 -6.22,1.92 -10.14,4.23 -1.43,0.84 0.11,0.22 -1.63,0.76 -1.17,0.37 -1.47,0.2 -2.69,0.5 -3.51,0.88 -2.66,1.97 -6.66,2.92l-22.89 7.44c-3.66,0.9 -2.57,2.17 -6.7,2.88 -6.22,1.07 -6.3,2.38 -11.06,3.31 -1.6,0.31 -2.54,0.25 -4.03,0.75 -4.06,1.38 -1.24,1.9 -7.49,2.89 -5.65,0.89 -3.18,0.47 -7.29,2.29 -2.85,1.26 -4.91,0.85 -7.85,1.72 -3.42,1.02 -2.85,2.08 -6.99,2.6 -11.01,1.38 -3.74,1.91 -16.24,3.71 -1.25,0.18 -2.86,0.42 -3.93,0.86 -2.42,1.01 -0.27,0.82 -3.14,1.65 -3.52,1.02 -8.48,0.88 -11.89,2.48 -3.8,1.78 -11.17,1.91 -16.24,3.71 -4.5,1.61 -9.44,1.17 -13.28,1.89 -3.85,0.72 -3.92,2.23 -7.82,2.56 -14.07,1.21 -4.33,-0.51 -16.32,2.84 -4.04,1.13 -13.44,0.28 -18.5,1.46 -4.72,1.1 -1.49,2.01 -7.45,2.13 -4.08,0.09 -6,0.12 -9.05,0.53 -7.05,0.96 -10.23,0.34 -17.72,2.24 -9.78,2.47 -27.56,1.19 -37.94,1.17 -7.55,-0.01 -11.87,0.83 -19.15,0.8l-19.16 -0.81c-12.85,-0.69 -26.2,0.22 -38.35,-0.77 -6.66,-0.54 -9.54,-2.46 -16.73,-2.43 -6.52,0.03 -12.16,-0.46 -17.86,-2.1 -6.23,-1.8 -10.56,-1.06 -17.19,-1.97 -2.35,-0.32 -4.46,-1.63 -7.22,-2.35 -3.59,-0.94 -5.55,-0.33 -9.43,-0.94 -2.15,-0.34 -4.84,-1.65 -7.23,-2.35 -2.89,-0.83 -5.2,-0.35 -8.49,-1.09 -3.79,-0.86 -3.47,-1.91 -7.01,-2.57 -12.31,-2.31 -4.58,-0.87 -12.03,-3.13 -0.48,-0.15 -3.61,-0.63 -4.09,-0.7 -5.88,-0.87 -3,-0.59 -7.15,-2.43 -4.2,-1.86 -1.65,0.66 -10.98,-3.39 -1.77,-0.77 -2.33,-0.61 -4.65,-0.93 -5.1,-0.7 -2.94,-1.51 -6.78,-2.8l-41.87 -16.41c-4.08,-2.09 -10.53,-3.52 -14.2,-5.76 -2.09,-1.28 0.03,-0.52 -3.01,-1.77 -0.95,-0.39 -0.98,-0.26 -1.79,-0.61l-15.3 -7.85c-1.95,-1.36 0.13,-0.66 -3,-1.79l-36.05 -20.63c-0.16,-0.09 -0.36,-0.2 -0.51,-0.29 -0.14,-0.09 -0.33,-0.23 -0.47,-0.32l-2.65 -2.13c-2.67,-1.94 -3.46,-2.34 -6.37,-4 -1.86,-1.07 -1.38,-0.91 -2.84,-1.95 -1.07,-0.76 -1.64,-1.06 -2.83,-1.96l-9.96 -6.81c-4.06,-3.48 -8.94,-5.81 -12.9,-9.46 -1.88,-1.73 0.28,-0.5 -2.54,-2.25 -1.96,-1.21 0.44,0.27 -1.63,-0.77l-3.87 -3.31c-0.11,-0.12 -0.27,-0.29 -0.39,-0.41 -0.73,-0.73 -1.91,-1.66 -2.64,-2.14 -0.95,-0.63 -0.77,-0.41 -1.5,-0.89l-20.1 -16.62c-1.52,-1.34 -1.16,-1.23 -2.38,-2.41l-7.87 -7.3c-0.45,-0.4 -0.71,-0.65 -1.25,-1.15l-11.89 -10.46c-0.17,-0.16 -0.67,-0.6 -0.84,-0.76 -0.83,-0.75 -0.81,-0.73 -1.68,-1.51l-11.12 -11.23c-0.11,-0.12 -0.26,-0.3 -0.37,-0.43 -0.11,-0.12 -0.25,-0.31 -0.36,-0.44l-23.59 -25.91c-1.81,-1.87 -0.45,-1.48 -3.33,-2.25 -1.62,1.18 -2.4,1.83 -2.4,4.79 0,10.51 -1.03,40.97 0.22,50.07 0.67,4.93 0.09,10.32 1.78,15.78 2.1,6.76 0.85,14.97 2.3,21.65 0.45,2.05 1.25,2.96 1.71,4.68 0.89,3.35 0.84,7.03 1.28,10.69 0.45,3.76 2.37,5.76 2.9,9.08 0.93,5.88 -0.32,4.73 2.08,9.89 1.85,3.99 0.84,5.54 2.07,9.1 1.68,4.84 1.61,2.19 2.97,9 0.9,4.49 2.34,4.33 3.24,8.74 1.61,7.94 7.93,17.75 10.11,25.81 1.03,3.84 1.29,2.11 2.56,4.63l5.36 11.4c3.75,5.75 6.67,12.38 10.8,17.94l8.23 12.52c0.09,0.15 0.2,0.36 0.3,0.5 0.09,0.14 0.21,0.35 0.31,0.49 0.1,0.14 0.23,0.33 0.33,0.47l15.82 20.9c0.16,0.17 0.61,0.66 0.77,0.83 0.11,0.12 0.28,0.29 0.39,0.41 0.11,0.12 0.28,0.29 0.39,0.41l27.87 28.8c4.61,4.57 10.41,9.78 15.79,12.95l3.05 2.54c0.12,0.11 0.32,0.25 0.44,0.36l4.88 3.89c0.14,0.1 0.32,0.25 0.45,0.35 1.02,0.79 0.55,0.61 1.78,1.41l5.96 3.62c0.13,0.1 0.32,0.24 0.45,0.35l11.45 7.71c1.77,1.13 1.55,1.34 3.27,2.32l27.05 15.26c5.96,3.95 13.54,6.08 20.26,9.27 2.47,1.17 1.2,1.29 4.04,2.35 1.63,0.61 2.73,0.43 4.53,1.05 3.02,1.04 1.84,1.49 4.02,2.36 2.09,0.84 2.3,0.16 4.54,1.05 2.88,1.15 1.2,1.38 4.01,2.38 1.23,0.44 3.28,0.62 4.56,1.02l8.86 3.11c3.51,0.85 5.2,2.62 8.83,3.15 4.28,0.63 1.71,-0.46 5.02,1.37 5.56,3.07 4.12,0.86 9.55,2.43 4.44,1.28 1.63,2.03 8.31,2.86 3.66,0.46 5.44,1.81 9.25,2.72 3.12,0.75 7.66,0.63 10.4,1.58 2.77,0.97 6,2.49 9.28,2.7 10.26,0.65 9.88,2.8 20.71,3.23 4.13,0.16 6.69,1.53 9.79,2.19 3.85,0.81 6.51,1.02 10.98,0.99 9.28,-0.05 12.11,3.28 32.73,3.19 5.11,-0.02 6.53,0.81 11.13,0.85 8.96,0.08 14.03,1.64 22.37,1.58 21.37,-0.17 38.83,2.2 61.92,-1.17 13.61,-1.99 31.27,0.74 43.86,-2.44 2.96,-0.75 0.83,-0.69 4.42,-1.17 9.13,-1.21 20.08,-0.43 28.24,-2.89 4.96,-1.5 13.29,-1.29 18.85,-1.9 5.19,-0.57 4.29,-1.83 8.03,-2.35 6.21,-0.85 12.72,0.05 17.65,-2.31 2.54,-1.21 -0.01,-0.62 3.81,-0.98 13.29,-1.26 16.29,-3.45 22.44,-3.91 8.7,-0.64 9.41,-2.95 17.47,-3.28 3.32,-0.14 5.86,-0.69 8.52,-1.85 4.05,-1.76 10.11,-0.92 14.41,-3.16 3.47,-1.81 6.44,-1.53 10.06,-3.51 2.06,-1.13 5.09,-1.13 8.18,-2.2 3.62,-1.25 3.61,-2.14 7.45,-2.93 4.47,-0.92 2.97,-2.13 7.37,-3.01 2.23,-0.45 2.19,-0.12 4.01,-0.77l7.55 -2.83c4.04,-0.85 3.52,-2.09 7.2,-3.18l7.63 -2.75c1.67,-0.77 1.86,-0.52 3.79,-1 3.76,-0.91 3.52,-2.01 7.44,-2.94l18.61 -6.93c4.44,-1.2 2.87,-2.17 7.2,-3.18l19.16 -7.18c4.27,-1.29 1.51,-0.76 3.05,-1.74l4.23 -1.35c4.9,-0.99 2.89,-1.83 7.11,-3.27 1.74,-0.59 2.08,-0.38 3.7,-1.09l14.58 -6.18c3.51,-1.2 3.53,-2.17 7.21,-3.16 3.69,-0.99 4,-1.93 7.15,-3.22 3.14,-1.3 3.93,-2.65 6.97,-3.41 7.11,-1.78 13.6,-6.92 20.76,-9.57l31.82 -15.28c2.48,-1.55 4.61,-1.49 7.21,-3.16l20.4 -10.73c2.76,-1.74 -0.36,-0.16 3.23,-1.56l7.04 -3.34c3.95,-1.3 1.99,-1.44 5.07,-2.9 2.76,-1.31 3.14,-0.83 5.46,-2.53 2.43,-1.78 0.03,-0.27 3.01,-1.77 2.4,-1.2 1.75,-1.09 3.47,-2.12l16.15 -8.6c2.26,-1.45 0.54,-0.69 3.54,-2.05 1.66,-0.75 1.66,-0.63 3.17,-1.62l5.3 -2.68c1,-0.54 0.89,-0.62 1.4,-1 5.55,-4.19 12.33,-6.89 18.07,-10.66 0.37,-0.25 1.11,-0.7 1.5,-0.9l13.14 -7.62c1.74,-0.98 1.59,-1.2 3.42,-2.16l57.09 -36.31c0.15,-0.1 0.34,-0.23 0.48,-0.32l11.47 -7.68c1.87,-1.18 1.21,-0.72 2.83,-1.96l24.11 -16.61c0.14,-0.1 0.32,-0.24 0.46,-0.34 0.14,-0.1 0.32,-0.24 0.46,-0.33l16.16 -11.78c0.13,-0.1 0.31,-0.26 0.44,-0.36l24.16 -18.15c0.13,-0.11 0.31,-0.26 0.44,-0.36l37.13 -29.92c3.04,-2.2 2.93,-1.13 6.04,-4.34l12.42 -10.73c0.13,-0.11 0.31,-0.26 0.43,-0.36l16.11 -14.23c0.12,-0.11 0.3,-0.26 0.43,-0.37 0.12,-0.11 0.3,-0.26 0.43,-0.36l9.3 -8.26c0.12,-0.11 0.28,-0.28 0.4,-0.4l67.15 -64.56c0.16,-0.17 0.61,-0.66 0.76,-0.83l7.29 -7.88c4.24,-4.42 9.23,-8.65 12.74,-13.6l2.19 -2.61c1.85,-1.98 1.58,-0.41 1.85,-3.73 2.94,-0.25 2.95,-0.26 3.19,-3.19 3.37,-0.28 3.42,-1.7 5.45,-4.13l39.37 -46.84c0.09,-0.12 1.3,-1.57 1.44,-1.75l14.92 -18.61c1.16,-1.4 0.13,0.25 1.48,-1.71l8.89 -11.86c0.11,-0.13 0.28,-0.29 0.39,-0.42 0.99,-1.17 0.6,-0.35 1.42,-1.77l40.62 -58.36c0.78,-1.4 0.05,-0.49 1.12,-2.08l1.76 -2.23c5.24,-7.49 4.95,-8.35 10.38,-16.75l5.74 -9.43c1.26,-1.83 0.05,0.49 1.19,-2 0.19,-0.41 0.63,-1.78 0.9,-2.29 0.08,-0.16 0.2,-0.36 0.29,-0.51l0.68 -0.91c0.1,-0.13 0.27,-0.29 0.37,-0.42 0.1,-0.13 0.27,-0.3 0.37,-0.43l0.95 -1.45c0.5,-0.86 0.28,-0.68 0.8,-1.6 0.93,-1.65 0.43,-0.67 1.26,-1.93l3.1 -4.88c0.1,-0.14 0.25,-0.31 0.34,-0.45l1.34 -2.65c1.66,-4.35 5.1,-7.26 6.71,-11.66l7.82 -14.53c0.09,-0.15 0.22,-0.34 0.32,-0.48l5.63 -11.13c0.88,-2.29 -0.52,0.99 0.41,-1.19l3.18 -6.4c1.6,-3.68 4.65,-6.79 6.16,-10.61 1.06,-2.7 0.69,-1.88 2.07,-4.32 1.23,-2.18 1.11,-2.62 1.75,-4.63 1.21,-3.83 0.63,-1.46 2.21,-4.17l12.06 -26.26c1.67,-2.83 1.93,-5.27 3.13,-8.04 0.85,-1.96 1.04,-1.03 2.15,-3.44l12.63 -31.27c0.36,-0.68 0.17,0.07 0.75,-1.65 1.24,-3.73 0.85,-4.35 2.46,-7.12 1.7,-2.93 1.56,-5.96 3.26,-9.52 2.42,-5.08 3.83,-13.47 5.9,-18.84 0.6,-1.56 1.19,-1.99 1.79,-3.8 0.57,-1.71 0.65,-3.53 1.19,-5.19 1.19,-3.58 2.36,-5.62 2.96,-9.81 0.71,-5.02 2.34,-3.76 3.08,-8.89 0.87,-6.02 2.74,-8.6 3.51,-14.85 0.01,-0.09 0.39,-2.4 0.47,-2.72 1.58,-6.4 1.51,-1.11 3.14,-12.83 0.62,-4.5 1.94,-4.63 2.83,-9.15 0.82,-4.17 0.07,-6.51 1.79,-10.98 1.87,-4.84 2.29,-14.33 3.75,-21 0.86,-3.94 1.44,-5.05 1.39,-10.59 -0.04,-4.35 0.38,-7.61 1.14,-11.64 1.96,-10.46 2.07,-11.67 2.05,-22.69 -0.01,-8.72 0.8,-14.85 0.8,-23.95 0,-10.66 -0.48,-20.07 -0.77,-31.16 -0.15,-5.52 -1.69,-8.4 -2.67,-13.3 -0.91,-4.54 -0.03,-9.49 -1.71,-14.26 -0.89,-2.54 -1.57,-3.25 -1.93,-6.05 -0.39,-3.03 -0.2,-4.48 -1.05,-6.93 -1.13,-3.29 -1.5,-1.81 -2.27,-5.71 -1.44,-7.3 -1.9,-4.64 -3.11,-8.87 -0.47,-1.64 -0.35,-2.24 -0.67,-3.33 -1.1,-3.8 -1.51,-1.4 -2.88,-5.1 -1.22,-3.31 0.01,-2.61 -1.93,-6.06 -0.63,-1.12 -0.64,-1 -1.42,-2.57l-4.71 -8.06c-0.78,-1.32 -0.7,-0.99 -1.58,-2.41 -4.52,-7.38 -10.52,-14.88 -17.19,-20.33 -1.23,-1 -0.05,-0.05 -1.22,-1.17l-10.42 -7.94c-3.9,-2.36 -7.36,-4.77 -11.91,-6.46 -2.93,-1.09 -3.13,-0.65 -5.85,-2.13 -6,-3.26 -7.39,-1.13 -12.84,-3.13 -9.03,-3.3 -23.82,-3.31 -33.41,-1.28 -2.19,0.46 -3.1,1.57 -5.2,1.99 -2.09,0.42 -4.51,0.11 -6.8,0.38 -1.02,0.12 -3.84,0.66 -5.18,1.21 -5.66,2.32 -8.17,2.27 -10.73,3.64 -2.23,1.19 0.09,0.32 -2.09,1.1 -0.37,0.13 -2.85,0.64 -3.27,0.73 -5.21,1.15 -9.73,4.46 -14.51,6.25l-7.19 3.18c-4.83,2.34 -13.17,5.11 -14.7,10.84z"/>
   <path class="fil0" d="M660.58 547.2c-10.8,0 -48,0.07 -57.39,-2.48 -4.57,-1.24 -12.98,-1.94 -18.48,-2.28 -7.16,-0.44 -9.87,-2.71 -16.79,-3.17 -7.57,-0.51 -10.09,-2.69 -17.51,-3.25 -4.74,-0.36 -3.86,-1.07 -7.25,-2.33 -3.87,-1.43 -8.56,-1.24 -12.29,-2.87 -3.78,-1.65 -8.41,-2.01 -12.16,-3.81 -3.02,-1.45 -4.92,-0.93 -7.53,-2.05l-7.64 -2.73c-3.74,-1.03 -1.09,-1.52 -7.28,-3.1 -3.08,-0.78 -0.45,0.19 -3.21,-1.58l-43.94 -22.32c-1.82,-0.86 -0.76,-0.33 -1.54,-0.85l-4.65 -3.33c-5.26,-4.05 -11.46,-7.31 -17.81,-12.52 -1.83,-1.5 -3.94,-2.96 -5.78,-4.59l-18.57 -16.55c-1.1,-1.19 -1.04,-1.24 -2.29,-2.51 -0.11,-0.12 -0.29,-0.28 -0.4,-0.39l-27.47 -33.99c-0.1,-0.14 -0.23,-0.33 -0.32,-0.48l-3.07 -4.91c-0.85,-1.27 -1.09,-1.82 -1.86,-2.93l-5.92 -10.05c-2.17,-4.56 -5.27,-8.26 -7.07,-12.88l-9.27 -21.07c-0.53,-1.9 -0.27,-2.28 -0.89,-3.89 -1.41,-3.68 -2.06,-3.46 -2.83,-7.55 -0.04,-0.2 -0.33,-1.6 -0.45,-1.95 -0.92,-2.74 -0.01,-0.24 -1.07,-2.13 -1.28,-2.27 -0.65,0.02 -1.47,-3.32 -0.38,-1.57 -0.38,-3.02 -0.76,-4.83 -0.86,-4.12 -1.7,-2.49 -2.68,-6.89 -0.8,-3.58 -0.31,-5.47 -1.66,-8.72 -2.32,-5.59 -1.54,-11.63 -3.84,-16.92 -2.07,-4.76 -1.36,-11.71 -2.44,-17.52 -0.78,-4.18 -1.89,-4.05 -2.11,-8.27 -0.17,-3.32 0.29,-6.96 -0.08,-10.29 -1.63,-14.5 -1.48,-32.4 -1.48,-48.01 0,-7.16 2.11,-8.87 -0.8,-14.37l-7.23 7.13c-2.72,4.28 -6.37,8.09 -8.94,12.62 -0.53,0.92 -0.57,1.18 -1.16,2.03 -0.58,0.84 -0.99,1.16 -1.76,2.24l-6.34 9.63c-0.14,0.19 -0.5,0.77 -0.63,0.97 -0.73,1.16 -0.68,1.27 -1.54,2.44 -0.74,1 -0.21,0.05 -1.43,1.76l-27.27 44.57c-2.78,6.6 -4.93,8.13 -7.49,14.06l-5.56 10.41c-0.78,1.15 -0.33,0.4 -0.89,1.5l-5.16 9.21c-1.93,2.74 -1.65,4.17 -3.42,6.96 -3.69,5.84 -7.72,18.07 -10.71,22.82l-1.95 4.44c-1.39,2.86 -1.62,1.3 -2.66,5.32l-4.06 10.31c-1.03,2.36 -1.56,2.21 -2.38,4.8l-3.82 10.55c-1.2,4.08 -1.18,1.84 -2.37,4.82 -0.76,1.88 -0.71,3.97 -1.46,5.72 -1.09,2.55 -1.36,0.82 -2.41,4.78 -2.23,8.4 -5.35,15.93 -7.41,24.53 -0.86,3.58 -0.15,0.97 -1.08,2.92 -1.43,3.01 -1.53,8.2 -2.8,11.57 -1.1,2.93 -1.26,0.8 -2.18,5 -0.54,2.45 -0.18,4.12 -0.79,6.39 -1.1,4.12 -2.68,6.59 -2.83,11.54 -0.19,6.28 -1.97,6.22 -2.9,11.46 -0.69,3.86 -0.68,9.37 -1.13,13.24 -0.55,4.69 -2.25,6.49 -2.38,11.98l0 64.72c0.11,5.71 2.18,5.71 3.23,20.72 0.34,4.83 2.36,5.06 3,8.97 0.31,1.88 0.06,3.35 0.36,5.23 0.74,4.63 2.6,3.74 3.1,8.87 0.38,3.99 2,5.28 3.05,8.93 0.6,2.1 0.35,3.15 1.35,5.04 1.38,2.6 1.34,0.83 2.62,6.16 0.51,2.13 0.01,0.86 0.8,2.39l14.32 27.19c0.1,0.14 0.25,0.32 0.34,0.46l20.05 27.05c6.28,7.7 12.57,15.35 20.69,21.62 1.47,1.13 1.9,1.16 3.25,2.34 1.01,0.88 2.15,2.02 3.29,3.09 5.98,5.63 13.26,11.19 20.22,15.71 0.89,0.58 0.23,0.04 1.45,0.94 1.09,0.79 0.83,0.79 1.76,1.44 1.2,0.84 0.59,0.39 2.05,1.14 0.22,0.11 0.87,0.4 1.08,0.52l19.44 11.7c1.96,1.21 2.53,1.04 4.38,2.01 0.16,0.08 0.36,0.2 0.51,0.29l11.04 5.73c4.27,1.19 8.91,3.78 12.65,5.71l4.41 1.18c4.59,1.24 3.81,2.57 8.57,3.4 5.2,0.9 1.06,-0.26 4.59,1.8 2.71,1.59 6.57,1.76 8.9,3.07 4.37,2.46 5.45,0.83 9.42,2.55 5.29,2.3 3.45,1.44 9.25,2.72 4.34,0.96 4.84,2.27 9.16,2.82 2.12,0.27 2.79,0.31 4.9,0.69 3.35,0.62 2.31,0.65 4.76,1.62 3.1,1.24 6.32,1.23 10.33,1.64 4.19,0.43 4.19,1.84 9.23,2.75 3.79,0.68 7.83,-0.05 11.25,0.72l9.39 2.58c8.39,1.22 11.82,-0.25 21.75,2.19 11.77,2.88 98.1,2.47 109.43,0.28 13.96,-2.69 17.77,-1 27.74,-2.59 4.85,-0.78 5.21,-1.54 9.62,-2.36 3.97,-0.74 7.43,-0.11 11.45,-0.52 1.04,-0.11 3.4,-0.47 4.82,-0.77 2.88,-0.62 2.28,-0.96 4.62,-1.77 2.65,-0.92 8.72,-0.82 10.88,-1.1 6.22,-0.8 6.12,-1.92 9.44,-2.53 5.09,-0.93 10.32,-0.47 14.96,-2.6l5.07 -1.32c5.33,-0.65 6.11,0.64 10.31,-1.66 5.02,-2.75 3.07,-1.08 9.28,-1.89 4.88,-0.64 4.31,-2.42 8.98,-3 2.13,-0.26 3.81,-0.34 5.05,-0.54 4.7,-0.76 2.01,-0.2 4.76,-1.63 3.1,-1.61 6.05,-1.04 9.75,-2.22 3.81,-1.22 4.98,-2.32 9.2,-2.77 4.82,-0.53 2.57,-1.16 6.22,-2.56 2.35,-0.91 5.15,-0.41 7.64,-1.14 3.92,-1.14 2.84,-1.72 8.91,-3.06 2.86,-0.63 2.53,-0.97 4.48,-1.9 2.76,-1.31 0.99,-0.5 4.41,-1.18 3.71,-0.73 4.79,-2.38 8.78,-3.19l3.98 -0.81c0.19,-0.07 0.4,-0.15 0.57,-0.23 2.31,-1 0.85,-1.26 4.13,-2.25 4.33,-1.32 4.57,-0.75 9.15,-2.83 2.3,-1.04 2.76,-0.51 4.95,-1.43 2.5,-1.06 1.44,-1.34 3.45,-2.14 2.06,-0.83 3.06,-0.3 5.19,-1.19 3.58,-1.5 -0.67,-0.48 3.52,-2.07l8.14 -3.04c0.16,-0.08 0.36,-0.19 0.53,-0.27l13.51 -4.85c2.5,-1.05 1.43,-1.33 3.45,-2.14 2.45,-0.98 2.49,-0.02 5.08,-1.3 2.17,-1.07 0.96,-1.17 3.43,-2.16 1.55,-0.62 3.38,-0.73 4.94,-1.45l8 -3.98c0.14,-0.09 0.32,-0.24 0.47,-0.33l59.73 -28.88c5.75,-2.23 10.72,-6.89 16.31,-9.24l28.99 -16.51c0.14,-0.1 0.35,-0.21 0.5,-0.3l9.48 -5.69c0.13,-0.1 0.3,-0.27 0.43,-0.36l10.22 -6.54c1.04,-0.8 0.67,-0.57 1.95,-1.24l9.31 -5.85c1.17,-0.64 0.96,-0.34 2.17,-1.02l27.87 -19.22c0.13,-0.1 0.32,-0.24 0.46,-0.34l27.61 -20.29c1.71,-1.23 1.66,-1.27 3.16,-2.43l6.8 -5.18c0.13,-0.11 0.3,-0.26 0.43,-0.37 0.12,-0.11 0.29,-0.27 0.42,-0.38l14.17 -11.37c0.69,-0.61 1.22,-0.92 1.82,-1.38l29.26 -24.22c1.49,-1.01 2.14,-1.81 3.35,-3.04l28.03 -26.25c0.11,-0.12 0.27,-0.29 0.38,-0.42l1.91 -2.08c0.12,-0.11 0.31,-0.26 0.44,-0.36l23.42 -22.88c2.41,-2.42 5.59,-4.11 5.89,-7.68 3.8,-0.41 1.61,-0.39 3.76,-2.63 0.72,-0.74 0.45,-0.42 1.23,-1.17l12.68 -12.87c0.11,-0.12 0.28,-0.29 0.39,-0.4l6.61 -6.96c0.11,-0.13 0.27,-0.3 0.37,-0.43 0.11,-0.13 0.26,-0.31 0.36,-0.44l25.38 -28.1c0.16,-0.16 0.65,-0.62 0.81,-0.78 0.95,-0.95 0.39,-0.31 1.18,-1.21l43.87 -52.72c0.71,-1.03 0.46,-0.85 0.9,-1.5l2.88 -3.51c0.68,-0.92 5,-5.39 7.25,-9.51 0.09,-0.16 0.18,-0.37 0.27,-0.53l9.88 -13.27c2.04,-3.9 7.16,-9 10.07,-13.88 0.67,-1.11 0.13,-0.31 1.02,-1.38 0.8,-0.96 0.05,0.16 1.18,-1.22 3.2,-3.94 5.21,-8.49 8.17,-12.58l19.96 -29.53c0.09,-0.15 0.2,-0.36 0.29,-0.51 0.12,-0.2 0.48,-0.78 0.61,-0.99l6.04 -10.72c1.23,-2.69 0.76,-1.21 1.89,-2.9l3.41 -5.37c0.94,-1.52 0.83,-1.84 1.59,-3.2l21.87 -40.4c1.21,-2.3 0.92,-3.91 2.36,-6.42l2.77 -6.81c0.08,-0.16 0.2,-0.35 0.29,-0.51l1.65 -2.33c1.28,-2.58 1.24,-4.67 2.67,-6.91 1.28,-2.02 0.81,-1.05 1.41,-3.37 1.23,-4.73 1.47,-2.96 2.68,-6.11 1.61,-4.19 -0.47,-2.77 2.4,-7.18 1.52,-2.35 0.64,0.07 1.47,-3.32 0.41,-1.7 0.21,-2.04 0.9,-3.89 1.02,-2.75 1.83,-2.42 2.66,-6.92 0.2,-1.08 0.31,-2.43 0.6,-3.39 0.62,-2.13 0.51,-0.94 1.54,-3.25 1.36,-3.06 0.88,-4.56 1.62,-7.96 0.55,-2.56 2.01,-3.79 2.66,-6.91 0.69,-3.31 0.21,-5.48 1.08,-8.51 0.8,-2.8 2,-4.19 2.34,-7.23 0.38,-3.4 0.32,-6.07 0.72,-8.86 0.91,-6.4 3.56,-9.6 0.96,-15 -5.79,1.54 -7.48,7.2 -10.89,11.46l-26.3 35.96c-0.86,1.18 -0.47,0.65 -1.05,1.34l-2.96 3.43c-3.29,3.66 -7.84,10.99 -14.3,17.63l-5.74 7.83c-0.76,0.9 -0.25,0.24 -1.21,1.18l-1.21 1.18c-0.16,0.17 -0.6,0.67 -0.76,0.83l-32.8 36.65c-0.1,0.14 -0.21,0.35 -0.31,0.48l-31.32 31.74c-1.9,1.71 -3.04,2.89 -4.85,4.73l-5.82 5.35c-4.87,3.55 -14.65,14.24 -22.17,20.14l-34.9 29.76c-0.13,0.11 -0.32,0.24 -0.45,0.35 -0.13,0.1 -0.32,0.25 -0.45,0.35l-8.57 6.6c-1.09,0.89 -1.41,1.37 -2.52,2.27l-51.7 37.71c-0.52,0.37 -0.75,0.5 -1.39,1 -0.13,0.1 -0.31,0.26 -0.44,0.36l-9.13 6.04c-0.14,0.1 -0.35,0.22 -0.48,0.31l-20.27 13.26c-1.3,0.71 -0.05,-0.06 -1.52,0.87l-5.33 3.45c-1.4,1.07 0.21,0.08 -1.32,1.07l-29.62 17.48c-2.4,1.22 -0.17,-0.15 -2.46,1.53l-9.32 5.05c-7.82,3.73 -15.44,8.77 -23.06,12.87l-12.68 6.48c-0.15,0.09 -0.35,0.21 -0.5,0.3l-17.54 8c-2.67,1.11 -2.93,1.99 -5.85,2.94 -4.3,1.39 -2.41,1.49 -5.84,2.95 -1.09,0.47 -2.17,0.65 -3.51,1.28 -4.1,1.94 -7.46,4.37 -11.83,5.73 -2.36,0.74 -0.97,-0.27 -3.56,1.23 -1.98,1.14 -0.28,0.6 -2.38,1.61 -1.38,0.66 -2.76,0.78 -3.73,1.06 -4.24,1.23 -1.92,1.52 -6.55,3.03l-12.24 5.33c-1.81,1.28 -4.73,1.18 -6.67,2.11l-26.62 10.1c-3.14,1.32 -2.86,1.84 -6.89,2.69 -1.82,0.38 -1.97,0.3 -3.23,0.76 -2.4,0.89 -1.39,0.88 -3.12,1.67 -2.7,1.22 -4.2,0.55 -7.03,1.75 -2.99,1.28 -1.53,1.52 -6.29,2.49l-7.05 2.53c-2.62,1.02 -4.42,0.68 -7.16,1.62 -3.34,1.15 -1.74,1.7 -6.28,2.5 -9.35,1.66 -5.28,2.03 -14.66,3.71 -3.58,0.64 -3.11,1.6 -6.27,2.51 -2.31,0.67 -6.12,0.66 -7.73,1.06 -3.95,0.99 -3.15,1.9 -6.28,2.5 -3.1,0.6 -5.22,0.28 -8.29,1.29 -9.81,3.22 -10.8,1.89 -15.18,3.18 -3.4,1 -1.2,1.5 -6.36,2.42 -2.73,0.49 -6.79,0.56 -8.63,0.95 -4.47,0.95 -2.62,1.45 -6.43,2.35 -5.13,1.21 -10.06,0.05 -15.43,2.13 -3.93,1.52 -3.24,1.23 -8.22,1.36l-11.43 1.34c-0.6,0.13 -1.3,0.32 -1.88,0.51 -4.59,1.5 -12.67,1.98 -18.64,2.12 -2.62,0.06 -5.23,0.44 -7.85,0.93 -9.57,1.81 -13.33,2.28 -24.86,2.28 -12.9,0 -22.97,0.8 -35.92,0.8z"/>
   <path class="fil0" d="M385.97 252.64c0,16.35 1.33,14.08 2.42,30.31 0.35,5.12 2.54,7.48 3.27,13.49 0.2,1.69 0.09,1.4 0.56,2.63 1.33,3.46 1.82,1.87 2.64,6.14 0.7,3.64 2.23,4.42 3.25,7.93l32.76 47.06c0.95,0.79 2.15,1.87 2.97,2.62l11.72 10.63c1.83,1.55 1,1.15 3.26,2.33l40.46 22.61c2.58,1.41 5.19,1.66 8.17,3.01 3.1,1.4 5.94,1.5 8.48,2.69 4.01,1.89 9.06,2.43 13.13,4.43 1.55,0.77 2.6,1.08 4.32,1.27 7.57,0.83 10.57,2.96 19.05,3.3 7.54,0.3 9.56,3.3 19.97,3.18 11.74,-0.13 21,2.4 32.72,2.4 9.68,0 19.76,0.28 29.17,-1.16 4.08,-0.63 7.94,-0.16 12,-0.77 12.22,-1.85 20.83,0.86 35.82,-2.5 7.3,-1.63 16.33,-0.77 23.48,-2.06 4.38,-0.79 4.16,-2.32 10.46,-2.32 6.92,0 10.65,-0.57 16.54,-2.61 3.45,-1.19 7.59,-1.01 11.47,-1.3 6.46,-0.49 5.83,-2.73 15.93,-3.23 6.69,-0.33 5.02,-1.66 9.99,-2.78 4.58,-1.03 6.5,-0.12 10.98,-1.8 3.8,-1.43 6.69,-1.39 10.52,-2.25 5.47,-1.21 3.48,-2.12 10.59,-2.98 3.67,-0.45 6.05,-2.21 9.68,-3.09 4.54,-1.1 5.11,-0.19 9.45,-2.52 3.66,-1.97 6.52,-0.75 10.76,-2.81l14.32 -4.83c4.35,-0.85 5.65,-2.41 9.57,-3.2 4.45,-0.9 5.56,-2.28 9.53,-3.24 2.2,-0.53 3.01,-0.36 5.2,-1.19 2.82,-1.08 1.57,-1.21 4.23,-2.16 2,-0.71 3.16,-0.38 5.33,-1.06 2.96,-0.92 1.56,-1.25 4.15,-2.24 2.95,-1.14 5.11,-1.08 7.17,-2.41 2.82,-1.81 4.02,-0.73 7.08,-2.5 4.93,-2.87 5.69,-1.87 9,-3.77l47.38 -20.47c2.06,-1.45 3.88,-1.21 6.62,-2.96l8.3 -4.47c2.05,-1.12 -0.27,-0.05 2.3,-0.89 1.05,-0.35 1.12,-0.17 2.39,-0.81l4.01 -2.37c0.63,-0.25 1.49,-0.38 2.4,-0.8l10.33 -5.64c2.85,-1.26 1.71,0.08 4.5,-1.89 1.62,-1.15 -0.68,-0.01 1.8,-1.4l31.36 -16.54c0.16,-0.08 0.36,-0.2 0.51,-0.29 0.16,-0.08 0.37,-0.18 0.53,-0.27 0.16,-0.08 0.38,-0.17 0.54,-0.26l3.38 -2.21c3.86,-2.82 7.58,-3.69 11.52,-6.05l94.86 -60.8c0.18,-0.15 0.67,-0.6 0.86,-0.74l1.4 -0.99c0.15,-0.1 0.36,-0.21 0.5,-0.3l1.83 -1.36c0.18,-0.15 0.64,-0.62 0.83,-0.77l36.51 -26.55c0.13,-0.1 0.3,-0.26 0.44,-0.36l8.32 -6.05c0.12,-0.11 0.27,-0.29 0.39,-0.4 1.19,-1.1 0.22,-0.4 1.73,-1.46 0.14,-0.1 0.35,-0.21 0.49,-0.3l8.64 -6.53c2.57,-1.75 3.21,-3.13 3.21,-6.37 0,-2.21 -2.4,-3.27 -3.97,-4.81 -0.52,-0.52 -1.33,-1.28 -2.06,-1.93l-13.95 -12.4c-1.31,-1.32 -0.76,-1.01 -2.38,-2.41l-27.87 -22.42c-3.27,-2.81 -7.61,-6.94 -11.25,-8.71 -2.52,-1.23 -0.28,0.36 -2.42,-1.57 -3.51,-3.18 -7.05,-6.5 -11.24,-8.72l-1.51 -0.88c-7.59,-5.32 -14.71,-11.89 -22.98,-16.13l-6.89 -4.29c-0.14,-0.1 -0.32,-0.25 -0.46,-0.34l-28.39 -17.11c-2.62,-1.64 -0.13,-0.26 -2.75,-1.24l-8.42 -5.15c-2.46,-1.61 -3.8,-1.41 -6.03,-2.75l-8.26 -4.51c-2.18,-1.26 -1.5,-0.58 -3.4,-1.39 -0.17,-0.08 -0.39,-0.16 -0.56,-0.24l-5.26 -2.72c-2.13,-0.75 -0.78,-0.02 -2.73,-1.26l-8.85 -4.72c-1.29,-0.69 -1.97,-0.72 -2.95,-1.04 -2.99,-0.98 -1.1,-0.26 -3.27,-1.53l-8.65 -4.12c-2.72,-1.5 -0.77,-0.34 -3.78,-1 -4.99,-1.1 -1.55,-1.42 -5.84,-2.94l-19.21 -7.13c-4.81,-0.98 -3.27,-1.19 -6.3,-2.48 -2.86,-1.22 -4.39,-0.5 -7.03,-1.75 -3.32,-1.57 -0.97,-1.53 -6.31,-2.47 -4.36,-0.77 -3.3,-1.36 -6.28,-2.5 -2.35,-0.9 -4.92,-0.69 -7.21,-1.57 -2.83,-1.08 -1.83,-1.6 -6.34,-2.44 -2.79,-0.52 -4.21,-0.31 -7.1,-1.69 -2.83,-1.35 0.44,-0.27 -2.77,-1.22 -4.47,-1.32 -7.75,-0.55 -11.2,-2.37 -2.74,-1.44 -3.24,-1.5 -7.12,-1.66 -7.95,-0.33 -6,-3.19 -14.36,-3.2 -3.6,-0 -4.94,0.09 -7.61,-1.17 -6.59,-3.11 -15.78,-2.06 -22.2,-4.14 -6.62,-2.15 -17.27,-0.74 -23.79,-2.56 -15.68,-4.37 -67.95,-2.5 -84.51,-2.5 -8.63,0 -19.14,-0.11 -26.42,2.32 -6.84,2.29 -19.67,-0.1 -26.12,2.62 -5.15,2.17 -10.91,1.81 -16.87,2.28 -4.51,0.36 -5.66,2.52 -15.96,3.2 -2.87,0.19 -5.11,1.3 -7.35,2.23 -3.58,1.48 -4.41,0.56 -8.57,1 -3.5,0.38 -4.3,1.66 -7.02,2.56 -2.73,0.91 -5.91,0.42 -8.45,1.12 -4.14,1.15 -2.13,1.9 -6.96,2.62 -8.47,1.27 -5.86,1.21 -11.95,3.22 -1.69,0.55 -2.18,0.47 -4.08,0.71 -5.58,0.7 -3.25,1.22 -7,2.57 -3.22,1.17 -4.6,-0.1 -7.76,1.82 -3.28,1.97 -3.18,1.49 -7.2,2.38 -5.05,1.12 -1.59,2.01 -6.71,2.86 -8.1,1.36 -5.36,1.98 -10.96,3.41 -1.56,0.4 -1.94,0.43 -3.48,1.31 -3.02,1.73 -7.38,2.04 -10.7,3.67l-11.02 4.94c-4.52,1.61 -8.46,2.5 -12.21,5.36l-25.69 15.82c-0.15,0.09 -0.35,0.22 -0.49,0.31l-51.58 41.02c-5.84,5.54 -17.9,18.97 -22.45,25.45l-4.48 5.89c-2.05,2.66 -4.73,5.16 -6.25,8.12 -1.32,2.59 -0.36,1.04 -1.86,2.93 -0.1,0.13 -0.27,0.29 -0.37,0.42 -0.1,0.13 -0.26,0.31 -0.36,0.44 -4.09,5.46 -8.9,14.19 -11.55,20.38l-13.12 29.99c-0.99,5.68 -0.97,3 -2.55,7.03 -1.18,3.01 -0.4,4.99 -1.17,8.41 -0.8,3.55 -1.81,2.72 -2.6,6.98 -0.58,3.08 -0.05,6.07 -0.38,9.2 -0.6,5.81 -2.3,10.24 -2.3,17.66z"/>
   <path class="fil0" d="M661.37 1229.7c10.34,5.47 15.63,4.08 24.55,5.79 2.1,0.4 4.5,1.85 7.82,2.55 5.06,1.07 5.76,-0.2 17.43,2.53 6.4,1.5 12.55,0.58 18.66,2.09 8.99,2.23 24.62,2.57 36.33,4.38 15.32,2.37 107.5,3.52 121.52,-0.19 11.33,-3 20.96,-0.56 33.54,-3.99 5.71,-1.56 11.96,-0.39 17.53,-1.63 3.57,-0.79 3.68,-1.54 7.24,-2.33 5.85,-1.29 10.91,0.15 16.32,-2.04 4.73,-1.91 11.28,-1.14 15.92,-3.24 1.73,-0.78 0.66,-0.74 2.71,-1.28 1.24,-0.33 2.89,-0.34 4.29,-0.5 5.3,-0.63 10.17,-3.03 15.55,-3.61 6.35,-0.68 8.6,-2.61 14.82,-3.54 3.56,-0.53 4.24,-1.4 7.17,-2.41 3.13,-1.08 6.61,-0.86 9.55,-2.43 5.06,-2.7 3.89,-0.23 11.88,-4.09 2.44,-1.18 5.15,-0.83 7.75,-1.83 2.78,-1.07 3.87,-2.05 6.99,-2.59 5.4,-0.95 3.39,-2.02 6.62,-2.96 3.57,-1.04 3.43,0.34 7.01,-1.77l10.19 -4.18c1.56,-0.73 1.72,-0.63 3.64,-1.16 5.1,-1.39 2.16,-1.57 6.68,-2.9l6.17 -2.61c3.18,-1.67 5.52,-1.44 8.62,-3.35 4.2,-2.58 10.26,-3.88 14.36,-6.39l6.38 -3.2c1.83,-1.1 0.79,-0.63 3.25,-1.54l72.3 -40.26c1.18,-0.67 1.78,-0.75 3.15,-1.65 1.46,-0.96 0.08,-0.09 1.37,-1.03 4,-2.91 8.65,-5.07 12.4,-8.36l3.95 -3.24c1.11,-0.81 0.32,-0.29 1.35,-1.04l9.84 -6.93c0.56,-0.44 -0.03,-0.14 1.34,-1.06l37.06 -30c0.13,-0.1 0.33,-0.24 0.46,-0.34 0.89,-0.65 0.61,-0.36 1.44,-0.95 1.4,-1.01 1.42,-1.18 2.59,-2.2 0.77,-0.67 1.49,-1.19 2.17,-1.82l21.43 -20.88c1.15,-1.21 1.19,-1.25 2.4,-2.4l7.09 -7.28c1.79,-1.82 2.99,-3.11 4.69,-4.89l10.88 -12.27c0.1,-0.14 0.23,-0.33 0.34,-0.46l9.58 -11.18c0.1,-0.13 0.25,-0.31 0.36,-0.44l6.94 -8.23c3.94,-5.14 9.02,-10.13 12.2,-15.73 0.65,-1.13 0.22,-0.56 0.9,-1.5l3.06 -4.12c1,-1.59 1.12,-1.45 2.05,-2.74 0.81,-1.11 0.99,-1.69 1.9,-2.89l33.83 -54.77c0.64,-1.09 0.98,-1.31 1.94,-2.85l2.77 -4.41c0.64,-1.19 0.19,-0.38 0.74,-1.65l3.24 -6.34c1.4,-3.6 -0.21,-0.46 1.56,-3.23 2.23,-3.48 1.2,-2.89 2.52,-6.27l6.25 -12.91c1.18,-3.77 2.16,-2.61 3.21,-6.37 0.44,-1.58 0.02,-1.67 0.61,-3.38 0.09,-0.27 0.67,-1.28 0.84,-1.56l2.29 -4.89c1.17,-3.82 2.08,-2.99 3.05,-6.53 0.2,-0.73 0.5,-2.94 0.85,-3.94l12.56 -34.53c1.28,-7.33 3.14,-8.53 3.89,-14.47 0.71,-5.58 1.2,-3.23 2.59,-6.99 1.07,-2.91 0.17,-5.24 1.21,-8.36 0.8,-2.41 2.02,-3.47 2.46,-6.32 1.4,-9.02 -0.41,-2.64 2.6,-11.77 1.65,-5.01 0.84,-11.15 2.77,-15.59 2.72,-6.27 1.63,-14.3 3.62,-20.33 0.69,-2.09 1.09,-6.16 1.36,-8.22 0.39,-2.98 0.1,-5.63 0.17,-8.61 0.12,-5.47 3.32,-11.31 3.24,-25.49 -0.03,-5.26 -0.45,-13.22 0.21,-18.15 2.57,-19.15 1.77,-41.93 -0.1,-61 -0.4,-4.06 0.36,-4.49 -3.3,-5.47 -2.94,2.15 -0.34,-0.24 -1.96,2.83l-3.79 7.39c-0.99,2.08 -1.18,1.48 -2.17,3.41 -0.75,1.46 -0.19,0.52 -0.67,1.72l-23.98 42.27c-0.09,0.15 -0.21,0.35 -0.3,0.5l-4.75 8.02c-3.21,5.06 -7.98,11.4 -10.89,17.05 -0.72,1.4 -0.59,1.97 -1.44,3.35l-13.59 20.74c-0.28,0.46 -0.36,0.5 -0.66,0.94l-12.12 18.21c-1.77,3.37 -5.14,6.64 -6.76,10 -0.6,1.25 -0.41,0.86 -0.88,1.52l-5.72 7.85c-1.62,2.7 -0.74,1.14 -2.42,3.17l-37.67 50.14c-1.66,2.94 0.42,0.52 -2.23,3.36l-2.64 2.95c-0.93,1.15 -0.26,0.24 -1.07,1.33l-12.86 15.87c-0.16,0.17 -0.65,0.62 -0.81,0.78l-6.59 7.78c-0.11,0.11 -0.29,0.28 -0.4,0.39l-7.87 9.7c-1.14,1.52 -0.33,0.47 -1.1,1.3l-43.71 47.29c-0.72,0.75 -0.44,0.42 -1.2,1.19 -0.87,0.87 -0.59,0.66 -1.6,1.6 -8.44,7.89 -16.36,16.88 -24.91,24.59 -0.86,0.78 -0.51,0.42 -1.25,1.14l-1.18 1.22c-0.12,0.11 -0.28,0.28 -0.4,0.4l-48.68 43.12c-0.13,0.11 -0.3,0.26 -0.43,0.37l-4.01 3.18c-0.13,0.11 -0.3,0.26 -0.43,0.37 -0.13,0.11 -0.31,0.26 -0.44,0.36 -0.18,0.15 -0.7,0.56 -0.88,0.71l-8.82 7.14c-0.12,0.11 -0.29,0.28 -0.4,0.39 -0.17,0.16 -0.65,0.62 -0.82,0.78l-21.8 17.32c-0.13,0.1 -0.32,0.25 -0.45,0.35 -0.14,0.1 -0.33,0.23 -0.47,0.33 -6.23,4.54 -12.21,10.01 -18.91,13.82l-16.67 12.07c-9.43,7.26 -22.02,13.81 -30.91,20.98l-20.06 12.67c-1.81,1.15 -2.01,0.95 -3.69,1.89 -4.89,2.74 -9.6,7.05 -14.66,9.28 -1.56,0.69 -0.57,-0.05 -2.31,0.89l-52.89 29.33c-2.25,1 -1.8,0.59 -3.75,1.83l-7.32 3.86c-6.46,4.17 -19.2,8.42 -26.19,12.92 -2.9,1.87 -5.05,1.47 -7.98,3.19 -2.36,1.39 -0.22,0.81 -3.61,1.98l-58.06 24.16c-3.81,1.32 -3.48,2.19 -7.34,3.03 -4.32,0.94 -3.48,2.17 -7.85,3.32 -4.65,1.22 -4.61,2.1 -8.03,3.15 -2.23,0.68 -2.4,0.1 -4.63,0.96 -2.39,0.92 -1.16,1.11 -3.56,2.03 -2.23,0.86 -2.4,0.28 -4.63,0.96 -3.91,1.2 -1.5,1.9 -7.45,2.93 -3.79,0.66 -5.02,2.14 -8.16,3.02l-8.31 2.87c-3.42,1.66 -5.41,0.7 -8.8,2.37l-16.33 5.23c-6.03,0.74 -4.24,2.19 -8.12,3.06 -4.05,0.91 -5.44,0.2 -9.15,2.03l-8.12 2.26c-1.83,0.37 -2.46,0.81 -4.07,1.52 -3.23,1.43 -6.11,1.06 -9.22,1.96 -2.97,0.87 -1.62,0.88 -3.79,1.79 -3.5,1.47 -5.97,0.34 -9.35,1.83 -7.25,3.19 -6.47,1.37 -12.7,3.27 -1.93,0.58 -2.34,1.23 -3.83,1.75 -3.46,1.21 -6.08,0.51 -9.7,1.47 -1.61,0.43 -0.33,0.02 -1.7,0.69 -0.16,0.08 -0.33,0.23 -0.49,0.31 -0.16,0.08 -0.33,0.23 -0.49,0.31l-5.74 1.44c-10.1,1.21 -6.82,1.99 -18.75,3.6 -3.72,0.5 -5.74,2.22 -8.41,2.77 -5.03,1.04 -5.12,-0.5 -7.75,3.42z"/>
  </g>
  <g id="_2002326440768">
   <path class="fil0" d="M6551.89 317.88c-5.77,-6.15 -9.07,-16.92 -15.48,-25.73 -12.1,-16.63 -21.02,-28.92 -35.79,-42.76 -7.13,-6.68 -8.04,-8.19 -16.82,-15.02 -10.97,-8.53 -22.99,-15.7 -32.84,-24.32 -9.55,-8.36 -44.02,-26.81 -56.82,-31.28 -14.93,-5.22 -27.64,-7.79 -43.22,-13.6 -15.39,-5.74 -35.19,-6.1 -52.24,-10.82 -35.71,-8.86 -168.11,-5.26 -211.18,-4.64 -81.55,1.18 -164.56,-2.66 -245.41,0.48 -63.01,3.13 -140.93,25.21 -191.7,63.81 -8.27,6.29 -16.09,12.6 -24.02,19.31 -10.61,9.06 -22.86,17.1 -31.87,27.6 -10.24,11.92 -20.76,24.92 -30.94,37.15 -6,7.21 -23.88,36.84 -27.65,44.97 -5.1,10.97 -8.96,22.87 -12.89,34.31 -5.81,16.85 -8.98,23.44 -13.04,42 -12.11,57.73 -7.46,124.16 -8.01,183.61 -0.71,72.45 -6.39,175.69 10.33,244.28 19.59,80.36 64.57,145.51 133.9,190.84 13.36,8.59 25.48,17.91 40.34,23.78 9.72,3.84 14.57,8.41 26.05,12.71 68.07,25.45 81.01,21.08 151.58,21.67 147,1.24 296.21,3.03 443.09,-0.06 16.12,-0.34 23.52,-0.31 38.05,-7.08 10.62,-4.94 20.68,-4.24 34.2,-10.78 22.2,-10.74 49.24,-18.17 69.42,-32.09 29.76,-20.54 81.6,-65.15 96.19,-97.81 3.19,-7.15 10.82,-15.22 15.73,-25.26 6.66,-13.61 14.13,-32.48 20.1,-46.83 9.05,-21.73 10.01,-44.26 15.2,-66.99 9.1,-39.92 4.61,-99.31 4.94,-141.95 0.47,-60.45 2.62,-126.29 -0.34,-186.25 -1.23,-24.87 -6.76,-49.51 -11.57,-73.89 -2.83,-14.45 -19.56,-63.59 -27.13,-76 -3.25,-5.32 -6.06,-8.71 -10.15,-13.35zm-441.67 609.43c57.66,0.91 106.89,2.89 163.02,-14.09 19.56,-5.92 46.48,-20.32 61.51,-34.72 14.63,-14.01 9.98,-7.24 20.37,-23.79 10.24,-16.31 15.92,-21.19 24.68,-40.4 23.53,-51.62 19.37,-60.25 20.12,-116.82 0.78,-59.31 0.79,-120.04 -0.84,-179.32 -1.92,-69.57 -42.79,-143.02 -105.79,-174.91 -54.79,-27.74 -189.67,-14.46 -255.72,-16.17 -63.26,-1.63 -165.88,-8.06 -223.46,16.21 -59.36,26.98 -86.32,66.13 -102.64,128.36 -10.99,41.9 -3.81,155.46 -5.4,206.89 -2.1,67.81 -1.97,107.23 34.43,167.06 13.58,22.32 24,33.95 47.16,45.88 27.38,14.1 34.17,22.32 67.46,29.66 45.19,9.96 117.81,6.82 165.77,6.34 28.42,-0.29 56.84,-0.61 85.26,-0.26l4.06 0.05z"/>
   <path class="fil0" d="M4444.04 625.02c-0.84,76.92 -1.19,153.82 -1.19,230.74 -0.41,31.99 -8.24,213.26 7.72,226.87 26.03,22.19 109.63,13.34 140.76,4.97 39.68,-10.67 40.3,-18.62 42.87,-60.53 2.86,-46.53 -2.44,-94.29 0.05,-139.82 1.29,-23.67 6.3,-48.92 19.72,-68.96 3.42,-5.1 14.47,-14.6 20.47,-16.89 36.09,-13.78 49.64,-12.49 87.24,-13.73 35.26,-1.17 114.65,-4.93 145.14,10.72 19.9,10.67 38.14,21.35 54.32,37.08 10.35,10.07 14.76,12.08 24.96,24.51 17.98,21.9 36.61,42.29 54,64.42 12.52,15.94 29.04,35.53 42.47,50.78 12.23,13.89 24.55,24.35 37.09,39.27 6.12,7.29 18.54,21.77 25.78,27.23 0.08,0.06 16.44,18.14 17.16,19 4.98,5.93 20,23.4 25.49,25.62 7.94,3.2 3.12,-0.65 11.14,5.39 8.52,6.4 64.9,4.11 79.15,4.1 51.2,0 102.72,0.76 153.84,0.57 40.09,-0.15 28.38,-8.58 5.5,-32.71 -21.11,-22.26 -41.43,-44.32 -62.91,-66.24 -13.69,-13.98 -25.36,-30.82 -39.88,-45.98 -21.16,-22.1 -34.01,-38.44 -52.7,-62.33 -12.25,-15.67 -21.04,-26.24 -35.09,-40.09 -7.23,-7.12 -11.35,-12.27 -19.45,-19.72 -4.66,-4.29 -24.46,-29.64 -26.13,-34.55 -4.11,-12.11 8.73,-15.99 17.01,-22.68 4.68,-3.78 10.53,-6.05 16.16,-9.87 12,-8.13 26.52,-17.91 37.73,-26.91l7.24 -6.6c40.92,-39.56 64.9,-72.79 72.39,-130.19 3.34,-23.84 6.56,-38.09 7.64,-63.08 3.61,-83.37 7.2,-155.51 -20.6,-235.9 -17.98,-49.47 -60.97,-105.96 -112.3,-123.37 -12.45,-4.22 -21.84,-6.63 -34.46,-11.64 -24.75,-9.82 -117.19,-13.31 -147.34,-13.18 -168.72,0.76 -336.64,-0.82 -505.29,-1.68 -8.59,-0.04 -65.03,-1.32 -69.41,2.72 -20.43,18.88 -24.96,-11.53 -26.84,45.58 -1.8,54.68 0.1,111.77 0.45,166.68l0.03 4.02c0.5,85.45 1,170.89 0.07,256.35zm214.08 -60.06c6.05,9.36 10.63,7.25 23,7.87 56.28,2.85 116.95,0.53 173.89,0.8 73.46,0.36 147.62,0.17 221.05,-1.47 19.26,-0.43 34.12,-7.15 45.38,-23.64 20,-29.31 14.47,-85.63 9.42,-119.76 -1.55,-10.46 -11.38,-31.19 -19.44,-37.61 -23.06,-18.4 -50.19,-18.72 -78.62,-19.52 -43.89,-1.23 -90.56,0.11 -134.86,0.01 -47.96,-0.11 -99.31,-1.3 -146.92,0.38 -24.32,0.86 -79.21,2.8 -92.32,26.71 -14.76,26.92 -9.82,78.74 -9.65,110.29 0.09,16.75 -0.41,41.6 9.08,55.93z"/>
   <path class="fil0" d="M4095.8 728.66c12.34,-1.64 16.71,-2.58 29.35,-5.62 21.19,-5.1 19.76,1.21 34.72,-21.6 10.4,-15.85 9.94,-63.32 10.2,-81.07 0.21,-14.67 2.32,-52.36 -2.89,-65.37 -2.16,-5.38 -2.73,-15.84 -8.23,-18.47 -8.64,-4.12 -8.78,-3.13 -16.22,-7.91 -8.37,-5.37 -35.56,-3.11 -45.87,-3.08 -180.34,0.42 -361.18,-0.89 -541.44,0.8 -24.16,0.23 -40.21,0.42 -55.77,-17.41 -12.66,-14.51 -10.22,-89.76 -7.8,-111.01 3.18,-27.89 19.04,-26.15 24.15,-35.09 4.6,-8.05 41.88,-5.51 51.41,-5.44 134.81,1.06 269.63,0.58 404.45,0.57 55.69,-0 111.51,0.26 167.18,-0 19.42,-0.09 31.49,-3.03 49.23,-9.47 12.78,-4.64 7.49,-5.72 17.33,-14.54 4.12,-3.69 3.99,-10.1 5.2,-15.31 9.18,-39.57 7.19,-84.85 6.07,-125.52 -1.32,-48 -65.41,-40.44 -98.08,-39.58 -41.45,1.09 -80.86,2.1 -122.36,2.26 -187.91,0.74 -375.52,1.4 -563.43,0.79 -12.13,-0.04 -50.13,0.96 -59.03,-3.3 -8.31,-3.97 -39.28,-2.01 -48.79,0.73 -7.04,2.03 -26.5,5.68 -29.19,13 -2.6,7.11 -7.63,2.72 -10.53,24.42 -3.94,29.42 -0.57,80.32 -0.43,112.05 1.13,248.09 -1.64,496.27 -0.27,744.31 0.05,8.89 -1.34,26.24 4.76,32.99 15.39,17.02 -3.62,10.92 30.76,17.59 17.22,3.34 69.98,1.51 90.06,1.48 68.52,-0.11 135.91,-0.55 204.43,-1.71 53.87,-0.91 108.57,-0.29 162.52,-0.29 113.06,-0.01 226.98,0.97 339.93,-0.05 11.64,-0.1 64.47,0.55 71.29,-6.54 5.78,-6.01 19.61,-16.12 20.68,-24.43 1.72,-13.45 1.53,-19.31 5.27,-32.67 3.72,-13.31 2.75,-90.66 -0.66,-105.34 -1.05,-4.54 -3.62,-14.59 -7.22,-17.44 -12.77,-10.09 -6.02,-12.56 -27.38,-13.31 -31.64,-1.1 -67.19,-0.05 -99.27,-0.04 -162.3,0.05 -324.75,-0.39 -487.04,0.15 -12.92,0.04 -68.53,3.58 -76.09,-4.4 -5.25,-5.55 3.01,-2.27 -6.55,-5.49 -8.62,-2.91 -14.72,-11.79 -16.65,-20.47 -3.86,-17.35 -4.37,-96.03 -0.04,-110.41 2.96,-9.8 14.53,-21.76 24.73,-24.83 16.67,-5.02 90.5,-2.43 113.16,-2.34 135.76,0.53 271.58,-0.58 407.27,-0.02 19.09,0.08 38.2,1.66 57.09,-1.59z"/>
   <path class="fil0" d="M2208.21 230.8c-0.08,-11.97 0.14,-38.71 -7.72,-47.87 -24.34,-28.37 -64.64,-23.66 -98.31,-25.84 -19.3,-1.25 -64.79,-4.58 -80.17,7.21 -2.81,2.78 -10.36,13.57 -11.18,17.79 -4.18,32.58 -1.07,79.14 -0.98,114.46 0.46,237.29 -2.05,474.58 -0.21,711.87 0.15,19.51 2.03,62.47 20.23,74.21 33.88,21.85 154.1,18.83 193.89,8.92 38.67,-9.62 54.92,-28.06 82.92,-54.44 21.69,-20.43 43.05,-52.12 64.52,-75.49 18.1,-19.71 34.63,-38.15 52.28,-58.25 9.75,-11.11 16.49,-13.32 26.29,-26.49 17.16,-21.87 38.69,-42.32 57.38,-63.67 22.15,-25.3 36.02,-33.73 61.11,-6.56 11.81,12.8 14.86,14.17 25.07,29.88 11.02,16.94 34.76,40.52 49.44,56.58 14.91,15.97 29.03,28.43 43.81,45.43 22.78,26.15 47.08,55.24 71.82,79.35 8.63,8.41 22.83,25.43 30.65,35.07 9,11.11 30.48,40.22 43.91,43.84 25.55,6.89 111.26,2.68 143.33,2.79 12.25,0.17 125.34,2.68 127.29,-3.96 0.57,-1.93 -31.71,-39.38 -34.8,-42.6 -7.84,-8.15 -12.27,-12.34 -19.43,-20.95 -12.66,-15.23 -31.74,-28.97 -44.14,-45.25 -8.66,-11.35 -15.76,-15.1 -24.14,-27.24 -3.04,-4.4 -6.29,-5.76 -11.01,-12.55 -17.3,-24.92 -50.52,-50.1 -70.38,-76.87 -19.9,-26.81 -43.79,-44.35 -65.9,-69.9 -16.76,-19.37 -33.41,-34.99 -49.85,-54.87 -9.02,-10.91 -16.32,-20.66 -27.3,-29.61 -4.46,-3.63 -2.03,-5.02 -9.21,-9.74 -5.85,-3.85 -3.3,-6.37 -10.25,-11.9 -8.51,-6.78 -29.56,-33.7 -33.87,-43.85 -16.24,-38.29 13.04,-64.01 36.57,-89.84 15.6,-17.06 27.32,-30.44 41.63,-48.68 9.56,-12.19 21.75,-21.26 32.47,-33.49 7.54,-8.62 8.42,-11.8 17.17,-18.9 6.49,-5.25 14.49,-15.35 21.23,-21.69 5.1,-4.8 3.92,-6.41 11.31,-12.07 1.99,-1.53 8.59,-11.12 12.26,-14.87 15.07,-15.41 30.79,-31.73 44.09,-48.63 9.75,-12.38 15.27,-17.33 26.51,-27.75 8.3,-7.69 10.96,-16.05 18.7,-21.56 2.57,-1.83 15.94,-17.69 18.48,-20.86 2.93,-3.66 4.67,-3.38 8.66,-9.11 4.09,-5.86 5.75,-4.1 10.87,-11.78 10.09,-15.13 39.27,-43.49 53.34,-58.48 5.13,-5.46 12.47,-11.16 15.74,-17.47 4.15,-8 7.62,-6.93 10.93,-13.99 1.51,-3.21 3.44,-4.13 6.39,-5.92 1.43,-0.77 17.32,-14.68 8.68,-16.05 -19.84,-1.88 -49.88,0.25 -71.44,0.11 -26.56,-0.82 -163.56,-8.76 -176.16,6.33 -6.54,7.83 0.56,3.31 -13.12,6.68 -34.49,8.48 -71.13,59.18 -96.41,85.26 -42.37,43.69 -83.95,89.88 -124.16,135.6 -14.21,16.16 -25.6,32.58 -40.54,49.14 -4.99,5.53 -9.6,10.84 -14.83,16.19 -3.83,3.85 -38.87,43.01 -40,45.17 -5.79,11.18 -35.13,31.92 -45.54,49.23 -6.39,9.13 -5.59,1.36 -11.83,11.66 -9.49,15.68 -38.74,38.72 -52.69,59.13 -11.74,17.17 -36.46,39.71 -51.79,55.22 -28.78,29.09 -54.31,57.16 -80.9,88.24 -8.8,10.32 -11.98,17.76 -24.6,26.67 -1.81,1.28 -3.79,2.35 -5.71,3.44 -8.1,4.46 -8.87,11.18 -23.6,11.06 -21.65,-0.17 -17.9,-29.62 -17.7,-45.37 0.14,-10.93 0.47,-21.84 0.58,-32.78 0.84,-166.46 1.41,-332.91 0.3,-499.37z"/>
  </g>
 </g>
</svg>
